<?xml version="1.0" encoding="UTF-8" standalone="no"?>
<!DOCTYPE svg PUBLIC "-//W3C//DTD SVG 1.1//EN"
 "http://www.w3.org/Graphics/SVG/1.1/DTD/svg11.dtd">
<!-- Generated by graphviz version 7.1.0 (20230121.1956)
 -->
<!-- Title: snakemake_dag Pages: 1 -->
<svg width="1388pt" height="1129pt"
 viewBox="0.00 0.00 1387.50 1129.00" xmlns="http://www.w3.org/2000/svg" xmlns:xlink="http://www.w3.org/1999/xlink">
<g id="graph0" class="graph" transform="scale(1 1) rotate(0) translate(4 1125)">
<title>snakemake_dag</title>
<polygon fill="white" stroke="none" points="-4,4 -4,-1125 1383.5,-1125 1383.5,4 -4,4"/>
<!-- 0 -->
<g id="node1" class="node">
<title>0</title>
<path fill="none" stroke="#d8cb56" stroke-width="2" d="M729,-36C729,-36 699,-36 699,-36 693,-36 687,-30 687,-24 687,-24 687,-12 687,-12 687,-6 693,0 699,0 699,0 729,0 729,0 735,0 741,-6 741,-12 741,-12 741,-24 741,-24 741,-30 735,-36 729,-36"/>
<text text-anchor="middle" x="714" y="-15.5" font-family="sans" font-size="10.00">all</text>
</g>
<!-- 1 -->
<g id="node2" class="node">
<title>1</title>
<path fill="none" stroke="#568ad8" stroke-width="2" d="M194.5,-108C194.5,-108 115.5,-108 115.5,-108 109.5,-108 103.5,-102 103.5,-96 103.5,-96 103.5,-84 103.5,-84 103.5,-78 109.5,-72 115.5,-72 115.5,-72 194.5,-72 194.5,-72 200.5,-72 206.5,-78 206.5,-84 206.5,-84 206.5,-96 206.5,-96 206.5,-102 200.5,-108 194.5,-108"/>
<text text-anchor="middle" x="155" y="-87.5" font-family="sans" font-size="10.00">report_cutadapt_SE</text>
</g>
<!-- 1&#45;&gt;0 -->
<g id="edge1" class="edge">
<title>1&#45;&gt;0</title>
<path fill="none" stroke="grey" stroke-width="2" d="M207.21,-75.53C213.19,-74.23 219.21,-73.01 225,-72 389.94,-43.16 589.1,-27.41 673.28,-21.61"/>
<polygon fill="grey" stroke="grey" stroke-width="2" points="673.49,-25.11 683.23,-20.94 673.02,-18.12 673.49,-25.11"/>
</g>
<!-- 2 -->
<g id="node3" class="node">
<title>2</title>
<path fill="none" stroke="#d86656" stroke-width="2" d="M520.5,-1044C520.5,-1044 471.5,-1044 471.5,-1044 465.5,-1044 459.5,-1038 459.5,-1032 459.5,-1032 459.5,-1020 459.5,-1020 459.5,-1014 465.5,-1008 471.5,-1008 471.5,-1008 520.5,-1008 520.5,-1008 526.5,-1008 532.5,-1014 532.5,-1020 532.5,-1020 532.5,-1032 532.5,-1032 532.5,-1038 526.5,-1044 520.5,-1044"/>
<text text-anchor="middle" x="496" y="-1023.5" font-family="sans" font-size="10.00">cutadapt_SE</text>
</g>
<!-- 2&#45;&gt;1 -->
<g id="edge13" class="edge">
<title>2&#45;&gt;1</title>
<path fill="none" stroke="grey" stroke-width="2" d="M458.57,-1019.09C363.47,-1003.02 120,-954.87 120,-883 120,-883 120,-883 120,-233 120,-193.15 133.16,-148.78 143.34,-120.42"/>
<polygon fill="grey" stroke="grey" stroke-width="2" points="146.48,-122.02 146.69,-111.43 139.92,-119.57 146.48,-122.02"/>
</g>
<!-- 7 -->
<g id="node8" class="node">
<title>7</title>
<path fill="none" stroke="#5663d8" stroke-width="2" d="M76,-972C76,-972 38,-972 38,-972 32,-972 26,-966 26,-960 26,-960 26,-948 26,-948 26,-942 32,-936 38,-936 38,-936 76,-936 76,-936 82,-936 88,-942 88,-948 88,-948 88,-960 88,-960 88,-966 82,-972 76,-972"/>
<text text-anchor="middle" x="57" y="-951.5" font-family="sans" font-size="10.00">falco_after</text>
</g>
<!-- 2&#45;&gt;7 -->
<g id="edge18" class="edge">
<title>2&#45;&gt;7</title>
<path fill="none" stroke="grey" stroke-width="2" d="M458.72,-1022.41C388.77,-1017.02 233.44,-1002.45 106,-972 104.42,-971.62 102.83,-971.22 101.22,-970.78"/>
<polygon fill="grey" stroke="grey" stroke-width="2" points="102.37,-967.47 91.78,-967.95 100.36,-974.18 102.37,-967.47"/>
</g>
<!-- 8 -->
<g id="node9" class="node">
<title>8</title>
<path fill="none" stroke="#d88d56" stroke-width="2" d="M915.5,-972C915.5,-972 826.5,-972 826.5,-972 820.5,-972 814.5,-966 814.5,-960 814.5,-960 814.5,-948 814.5,-948 814.5,-942 820.5,-936 826.5,-936 826.5,-936 915.5,-936 915.5,-936 921.5,-936 927.5,-942 927.5,-948 927.5,-948 927.5,-960 927.5,-960 927.5,-966 921.5,-972 915.5,-972"/>
<text text-anchor="middle" x="871" y="-951.5" font-family="sans" font-size="10.00">count_cutadapt_reads</text>
</g>
<!-- 2&#45;&gt;8 -->
<g id="edge19" class="edge">
<title>2&#45;&gt;8</title>
<path fill="none" stroke="grey" stroke-width="2" d="M533.29,-1019.62C589.28,-1011.32 698.63,-994.26 801.34,-972.69"/>
<polygon fill="grey" stroke="grey" stroke-width="2" points="801.82,-976.16 810.87,-970.66 800.36,-969.32 801.82,-976.16"/>
</g>
<!-- 13 -->
<g id="node14" class="node">
<title>13</title>
<path fill="none" stroke="#d8c356" stroke-width="2" d="M550,-972C550,-972 442,-972 442,-972 436,-972 430,-966 430,-960 430,-960 430,-948 430,-948 430,-942 436,-936 442,-936 442,-936 550,-936 550,-936 556,-936 562,-942 562,-948 562,-948 562,-960 562,-960 562,-966 556,-972 550,-972"/>
<text text-anchor="middle" x="496" y="-951.5" font-family="sans" font-size="10.00">hisat2_3n_mapping_genes</text>
</g>
<!-- 2&#45;&gt;13 -->
<g id="edge28" class="edge">
<title>2&#45;&gt;13</title>
<path fill="none" stroke="grey" stroke-width="2" d="M496,-1007.34C496,-1000.75 496,-993.08 496,-985.67"/>
<polygon fill="grey" stroke="grey" stroke-width="2" points="499.5,-985.93 496,-975.93 492.5,-985.93 499.5,-985.93"/>
</g>
<!-- 3 -->
<g id="node4" class="node">
<title>3</title>
<path fill="none" stroke="#88d856" stroke-width="2" d="M617,-1121C617,-1121 535,-1121 535,-1121 529,-1121 523,-1115 523,-1109 523,-1109 523,-1092 523,-1092 523,-1086 529,-1080 535,-1080 535,-1080 617,-1080 617,-1080 623,-1080 629,-1086 629,-1092 629,-1092 629,-1109 629,-1109 629,-1115 623,-1121 617,-1121"/>
<text text-anchor="middle" x="576" y="-1109" font-family="sans" font-size="10.00">join_pairend_reads</text>
<text text-anchor="middle" x="576" y="-1098" font-family="sans" font-size="10.00">rn: run1</text>
<text text-anchor="middle" x="576" y="-1087" font-family="sans" font-size="10.00">sample: DMSO&#45;rep1</text>
</g>
<!-- 3&#45;&gt;2 -->
<g id="edge14" class="edge">
<title>3&#45;&gt;2</title>
<path fill="none" stroke="grey" stroke-width="2" d="M553.72,-1079.3C544.86,-1071.28 534.56,-1061.94 525.13,-1053.4"/>
<polygon fill="grey" stroke="grey" stroke-width="2" points="527.72,-1051.02 517.96,-1046.9 523.02,-1056.21 527.72,-1051.02"/>
</g>
<!-- 5 -->
<g id="node6" class="node">
<title>5</title>
<path fill="none" stroke="#56d8d8" stroke-width="2" d="M820.5,-1044C820.5,-1044 771.5,-1044 771.5,-1044 765.5,-1044 759.5,-1038 759.5,-1032 759.5,-1032 759.5,-1020 759.5,-1020 759.5,-1014 765.5,-1008 771.5,-1008 771.5,-1008 820.5,-1008 820.5,-1008 826.5,-1008 832.5,-1014 832.5,-1020 832.5,-1020 832.5,-1032 832.5,-1032 832.5,-1038 826.5,-1044 820.5,-1044"/>
<text text-anchor="middle" x="796" y="-1023.5" font-family="sans" font-size="10.00">cutadapt_PE</text>
</g>
<!-- 3&#45;&gt;5 -->
<g id="edge16" class="edge">
<title>3&#45;&gt;5</title>
<path fill="none" stroke="grey" stroke-width="2" d="M629.82,-1081.76C665.39,-1070.04 711.68,-1054.79 746.37,-1043.35"/>
<polygon fill="grey" stroke="grey" stroke-width="2" points="747.31,-1046.73 755.71,-1040.28 745.12,-1040.08 747.31,-1046.73"/>
</g>
<!-- 4 -->
<g id="node5" class="node">
<title>4</title>
<path fill="none" stroke="#9fd856" stroke-width="2" d="M1367.5,-324C1367.5,-324 1288.5,-324 1288.5,-324 1282.5,-324 1276.5,-318 1276.5,-312 1276.5,-312 1276.5,-300 1276.5,-300 1276.5,-294 1282.5,-288 1288.5,-288 1288.5,-288 1367.5,-288 1367.5,-288 1373.5,-288 1379.5,-294 1379.5,-300 1379.5,-300 1379.5,-312 1379.5,-312 1379.5,-318 1373.5,-324 1367.5,-324"/>
<text text-anchor="middle" x="1328" y="-303.5" font-family="sans" font-size="10.00">report_cutadapt_PE</text>
</g>
<!-- 4&#45;&gt;0 -->
<g id="edge2" class="edge">
<title>4&#45;&gt;0</title>
<path fill="none" stroke="grey" stroke-width="2" d="M1329.08,-287.19C1330.67,-242.85 1328,-127.1 1262,-72 1223.23,-39.63 874.95,-24.59 754.65,-20.32"/>
<polygon fill="grey" stroke="grey" stroke-width="2" points="754.93,-16.83 744.81,-19.98 754.69,-23.82 754.93,-16.83"/>
</g>
<!-- 5&#45;&gt;4 -->
<g id="edge15" class="edge">
<title>5&#45;&gt;4</title>
<path fill="none" stroke="grey" stroke-width="2" d="M833.16,-1022.71C950.75,-1014.48 1307,-981.41 1307,-883 1307,-883 1307,-883 1307,-449 1307,-410.06 1314.82,-365.75 1320.92,-337.14"/>
<polygon fill="grey" stroke="grey" stroke-width="2" points="1324.25,-338.28 1322.99,-327.76 1317.42,-336.77 1324.25,-338.28"/>
</g>
<!-- 5&#45;&gt;8 -->
<g id="edge20" class="edge">
<title>5&#45;&gt;8</title>
<path fill="none" stroke="grey" stroke-width="2" d="M814.93,-1007.34C823.3,-999.52 833.33,-990.16 842.57,-981.53"/>
<polygon fill="grey" stroke="grey" stroke-width="2" points="844.68,-984.35 849.61,-974.97 839.91,-979.23 844.68,-984.35"/>
</g>
<!-- 15 -->
<g id="node16" class="node">
<title>15</title>
<path fill="none" stroke="#d86e56" stroke-width="2" d="M784.5,-972C784.5,-972 657.5,-972 657.5,-972 651.5,-972 645.5,-966 645.5,-960 645.5,-960 645.5,-948 645.5,-948 645.5,-942 651.5,-936 657.5,-936 657.5,-936 784.5,-936 784.5,-936 790.5,-936 796.5,-942 796.5,-948 796.5,-948 796.5,-960 796.5,-960 796.5,-966 790.5,-972 784.5,-972"/>
<text text-anchor="middle" x="721" y="-951.5" font-family="sans" font-size="10.00">hisat2_3n_mapping_genes_PE</text>
</g>
<!-- 5&#45;&gt;15 -->
<g id="edge30" class="edge">
<title>5&#45;&gt;15</title>
<path fill="none" stroke="grey" stroke-width="2" d="M777.07,-1007.34C768.7,-999.52 758.67,-990.16 749.43,-981.53"/>
<polygon fill="grey" stroke="grey" stroke-width="2" points="752.09,-979.23 742.39,-974.97 747.32,-984.35 752.09,-979.23"/>
</g>
<!-- 6 -->
<g id="node7" class="node">
<title>6</title>
<path fill="none" stroke="#d8a456" stroke-width="2" d="M80,-756C80,-756 12,-756 12,-756 6,-756 0,-750 0,-744 0,-744 0,-732 0,-732 0,-726 6,-720 12,-720 12,-720 80,-720 80,-720 86,-720 92,-726 92,-732 92,-732 92,-744 92,-744 92,-750 86,-756 80,-756"/>
<text text-anchor="middle" x="46" y="-735.5" font-family="sans" font-size="10.00">report_falco_after</text>
</g>
<!-- 6&#45;&gt;0 -->
<g id="edge3" class="edge">
<title>6&#45;&gt;0</title>
<path fill="none" stroke="grey" stroke-width="2" d="M49.73,-719.16C55,-692.34 64,-639.98 64,-595 64,-595 64,-595 64,-161 64,-119.26 61.16,-97.77 94,-72 139.5,-36.29 542.81,-23.23 673.4,-19.92"/>
<polygon fill="grey" stroke="grey" stroke-width="2" points="673.27,-23.43 683.18,-19.68 673.1,-16.43 673.27,-23.43"/>
</g>
<!-- 7&#45;&gt;6 -->
<g id="edge17" class="edge">
<title>7&#45;&gt;6</title>
<path fill="none" stroke="grey" stroke-width="2" d="M56.08,-935.12C54.2,-898.62 49.91,-815.13 47.58,-769.74"/>
<polygon fill="grey" stroke="grey" stroke-width="2" points="51.09,-769.81 47.08,-760 44.1,-770.17 51.09,-769.81"/>
</g>
<!-- 8&#45;&gt;0 -->
<g id="edge4" class="edge">
<title>8&#45;&gt;0</title>
<path fill="none" stroke="grey" stroke-width="2" d="M928.26,-943.7C1033.72,-924.93 1248,-878.49 1248,-811 1248,-811 1248,-811 1248,-161 1248,-59.06 879.94,-28.51 754.96,-21.07"/>
<polygon fill="grey" stroke="grey" stroke-width="2" points="755.16,-17.58 744.98,-20.51 754.76,-24.57 755.16,-17.58"/>
</g>
<!-- 9 -->
<g id="node10" class="node">
<title>9</title>
<path fill="none" stroke="#56d87b" stroke-width="2" d="M666.5,-540C666.5,-540 577.5,-540 577.5,-540 571.5,-540 565.5,-534 565.5,-528 565.5,-528 565.5,-516 565.5,-516 565.5,-510 571.5,-504 577.5,-504 577.5,-504 666.5,-504 666.5,-504 672.5,-504 678.5,-510 678.5,-516 678.5,-516 678.5,-528 678.5,-528 678.5,-534 672.5,-540 666.5,-540"/>
<text text-anchor="middle" x="622" y="-519.5" font-family="sans" font-size="10.00">stat_mapping_number</text>
</g>
<!-- 9&#45;&gt;0 -->
<g id="edge5" class="edge">
<title>9&#45;&gt;0</title>
<path fill="none" stroke="grey" stroke-width="2" d="M634.31,-503.4C641,-493.34 649.09,-480.31 655,-468 677.02,-422.13 670.71,-405.74 693,-360 701.32,-342.93 708.7,-341.53 716,-324 731.59,-286.58 736,-275.54 736,-235 736,-235 736,-235 736,-161 736,-122.02 727.8,-77.72 721.42,-49.12"/>
<polygon fill="grey" stroke="grey" stroke-width="2" points="724.91,-48.7 719.24,-39.74 718.09,-50.28 724.91,-48.7"/>
</g>
<!-- 10 -->
<g id="node11" class="node">
<title>10</title>
<path fill="none" stroke="#5673d8" stroke-width="2" d="M819.5,-684C819.5,-684 766.5,-684 766.5,-684 760.5,-684 754.5,-678 754.5,-672 754.5,-672 754.5,-660 754.5,-660 754.5,-654 760.5,-648 766.5,-648 766.5,-648 819.5,-648 819.5,-648 825.5,-648 831.5,-654 831.5,-660 831.5,-660 831.5,-672 831.5,-672 831.5,-678 825.5,-684 819.5,-684"/>
<text text-anchor="middle" x="793" y="-663.5" font-family="sans" font-size="10.00">combine_runs</text>
</g>
<!-- 10&#45;&gt;9 -->
<g id="edge21" class="edge">
<title>10&#45;&gt;9</title>
<path fill="none" stroke="grey" stroke-width="2" d="M771.34,-647.02C741.53,-622.26 687.67,-577.53 653.43,-549.1"/>
<polygon fill="grey" stroke="grey" stroke-width="2" points="655.74,-546.47 645.81,-542.77 651.27,-551.85 655.74,-546.47"/>
</g>
<!-- 33 -->
<g id="node34" class="node">
<title>33</title>
<path fill="none" stroke="#56c1d8" stroke-width="2" d="M826,-612C826,-612 760,-612 760,-612 754,-612 748,-606 748,-600 748,-600 748,-588 748,-588 748,-582 754,-576 760,-576 760,-576 826,-576 826,-576 832,-576 838,-582 838,-588 838,-588 838,-600 838,-600 838,-606 832,-612 826,-612"/>
<text text-anchor="middle" x="793" y="-591.5" font-family="sans" font-size="10.00">hisat2_3n_dedup</text>
</g>
<!-- 10&#45;&gt;33 -->
<g id="edge50" class="edge">
<title>10&#45;&gt;33</title>
<path fill="none" stroke="grey" stroke-width="2" d="M793,-647.34C793,-640.75 793,-633.08 793,-625.67"/>
<polygon fill="grey" stroke="grey" stroke-width="2" points="796.5,-625.93 793,-615.93 789.5,-625.93 796.5,-625.93"/>
</g>
<!-- 11 -->
<g id="node12" class="node">
<title>11</title>
<path fill="none" stroke="#56d85b" stroke-width="2" d="M877,-828C877,-828 769,-828 769,-828 763,-828 757,-822 757,-816 757,-816 757,-804 757,-804 757,-798 763,-792 769,-792 769,-792 877,-792 877,-792 883,-792 889,-798 889,-804 889,-804 889,-816 889,-816 889,-822 883,-828 877,-828"/>
<text text-anchor="middle" x="823" y="-807.5" font-family="sans" font-size="10.00">join_SE_and_PE_mapping</text>
</g>
<!-- 11&#45;&gt;10 -->
<g id="edge24" class="edge">
<title>11&#45;&gt;10</title>
<path fill="none" stroke="grey" stroke-width="2" d="M819.2,-791.02C814.22,-767.44 805.41,-725.73 799.39,-697.25"/>
<polygon fill="grey" stroke="grey" stroke-width="2" points="802.89,-696.86 797.39,-687.8 796.04,-698.31 802.89,-696.86"/>
</g>
<!-- 12 -->
<g id="node13" class="node">
<title>12</title>
<path fill="none" stroke="#61d856" stroke-width="2" d="M764,-900C764,-900 708,-900 708,-900 702,-900 696,-894 696,-888 696,-888 696,-876 696,-876 696,-870 702,-864 708,-864 708,-864 764,-864 764,-864 770,-864 776,-870 776,-876 776,-876 776,-888 776,-888 776,-894 770,-900 764,-900"/>
<text text-anchor="middle" x="736" y="-885" font-family="sans" font-size="10.00">hisat2_3n_sort</text>
<text text-anchor="middle" x="736" y="-874" font-family="sans" font-size="10.00">ref: genes</text>
</g>
<!-- 12&#45;&gt;11 -->
<g id="edge25" class="edge">
<title>12&#45;&gt;11</title>
<path fill="none" stroke="grey" stroke-width="2" d="M757.95,-863.34C767.87,-855.36 779.79,-845.77 790.7,-836.99"/>
<polygon fill="grey" stroke="grey" stroke-width="2" points="792.8,-839.8 798.39,-830.8 788.41,-834.34 792.8,-839.8"/>
</g>
<!-- 13&#45;&gt;12 -->
<g id="edge27" class="edge">
<title>13&#45;&gt;12</title>
<path fill="none" stroke="grey" stroke-width="2" d="M562.65,-935.38C596.22,-926.29 637.78,-914.69 682.94,-900.86"/>
<polygon fill="grey" stroke="grey" stroke-width="2" points="683.71,-904.29 692.24,-897.99 681.65,-897.6 683.71,-904.29"/>
</g>
<!-- 19 -->
<g id="node20" class="node">
<title>19</title>
<path fill="none" stroke="#b6d856" stroke-width="2" d="M488,-900C488,-900 372,-900 372,-900 366,-900 360,-894 360,-888 360,-888 360,-876 360,-876 360,-870 366,-864 372,-864 372,-864 488,-864 488,-864 494,-864 500,-870 500,-876 500,-876 500,-888 500,-888 500,-894 494,-900 488,-900"/>
<text text-anchor="middle" x="430" y="-879.5" font-family="sans" font-size="10.00">hisat2_3n_mapping_genome</text>
</g>
<!-- 13&#45;&gt;19 -->
<g id="edge35" class="edge">
<title>13&#45;&gt;19</title>
<path fill="none" stroke="grey" stroke-width="2" d="M479.35,-935.34C472.21,-927.77 463.71,-918.75 455.79,-910.35"/>
<polygon fill="grey" stroke="grey" stroke-width="2" points="458.36,-907.98 448.96,-903.1 453.27,-912.78 458.36,-907.98"/>
</g>
<!-- 14 -->
<g id="node15" class="node">
<title>14</title>
<path fill="none" stroke="#56d892" stroke-width="2" d="M881.5,-900C881.5,-900 806.5,-900 806.5,-900 800.5,-900 794.5,-894 794.5,-888 794.5,-888 794.5,-876 794.5,-876 794.5,-870 800.5,-864 806.5,-864 806.5,-864 881.5,-864 881.5,-864 887.5,-864 893.5,-870 893.5,-876 893.5,-876 893.5,-888 893.5,-888 893.5,-894 887.5,-900 881.5,-900"/>
<text text-anchor="middle" x="844" y="-885" font-family="sans" font-size="10.00">hisat2_3n_sort_PE</text>
<text text-anchor="middle" x="844" y="-874" font-family="sans" font-size="10.00">ref: genes</text>
</g>
<!-- 14&#45;&gt;11 -->
<g id="edge26" class="edge">
<title>14&#45;&gt;11</title>
<path fill="none" stroke="grey" stroke-width="2" d="M838.7,-863.34C836.68,-856.59 834.31,-848.69 832.03,-841.11"/>
<polygon fill="grey" stroke="grey" stroke-width="2" points="835.47,-840.37 829.24,-831.8 828.76,-842.39 835.47,-840.37"/>
</g>
<!-- 15&#45;&gt;14 -->
<g id="edge29" class="edge">
<title>15&#45;&gt;14</title>
<path fill="none" stroke="grey" stroke-width="2" d="M752.36,-935.15C767.25,-926.68 785.27,-916.42 801.38,-907.25"/>
<polygon fill="grey" stroke="grey" stroke-width="2" points="803.11,-910.3 810.07,-902.31 799.65,-904.21 803.11,-910.3"/>
</g>
<!-- 21 -->
<g id="node22" class="node">
<title>21</title>
<path fill="none" stroke="#d8b456" stroke-width="2" d="M665.5,-900C665.5,-900 530.5,-900 530.5,-900 524.5,-900 518.5,-894 518.5,-888 518.5,-888 518.5,-876 518.5,-876 518.5,-870 524.5,-864 530.5,-864 530.5,-864 665.5,-864 665.5,-864 671.5,-864 677.5,-870 677.5,-876 677.5,-876 677.5,-888 677.5,-888 677.5,-894 671.5,-900 665.5,-900"/>
<text text-anchor="middle" x="598" y="-879.5" font-family="sans" font-size="10.00">hisat2_3n_mapping_genome_PE</text>
</g>
<!-- 15&#45;&gt;21 -->
<g id="edge37" class="edge">
<title>15&#45;&gt;21</title>
<path fill="none" stroke="grey" stroke-width="2" d="M689.64,-935.15C674.75,-926.68 656.73,-916.42 640.62,-907.25"/>
<polygon fill="grey" stroke="grey" stroke-width="2" points="642.35,-904.21 631.93,-902.31 638.89,-910.3 642.35,-904.21"/>
</g>
<!-- 16 -->
<g id="node17" class="node">
<title>16</title>
<path fill="none" stroke="#5673d8" stroke-width="2" d="M337.5,-684C337.5,-684 284.5,-684 284.5,-684 278.5,-684 272.5,-678 272.5,-672 272.5,-672 272.5,-660 272.5,-660 272.5,-654 278.5,-648 284.5,-648 284.5,-648 337.5,-648 337.5,-648 343.5,-648 349.5,-654 349.5,-660 349.5,-660 349.5,-672 349.5,-672 349.5,-678 343.5,-684 337.5,-684"/>
<text text-anchor="middle" x="311" y="-663.5" font-family="sans" font-size="10.00">combine_runs</text>
</g>
<!-- 16&#45;&gt;9 -->
<g id="edge22" class="edge">
<title>16&#45;&gt;9</title>
<path fill="none" stroke="grey" stroke-width="2" d="M350.39,-647.02C406.47,-621.41 509.37,-574.43 571.15,-546.22"/>
<polygon fill="grey" stroke="grey" stroke-width="2" points="572.53,-549.43 580.18,-542.1 569.63,-543.07 572.53,-549.43"/>
</g>
<!-- 29 -->
<g id="node30" class="node">
<title>29</title>
<path fill="none" stroke="#56c1d8" stroke-width="2" d="M344,-612C344,-612 278,-612 278,-612 272,-612 266,-606 266,-600 266,-600 266,-588 266,-588 266,-582 272,-576 278,-576 278,-576 344,-576 344,-576 350,-576 356,-582 356,-588 356,-588 356,-600 356,-600 356,-606 350,-612 344,-612"/>
<text text-anchor="middle" x="311" y="-591.5" font-family="sans" font-size="10.00">hisat2_3n_dedup</text>
</g>
<!-- 16&#45;&gt;29 -->
<g id="edge46" class="edge">
<title>16&#45;&gt;29</title>
<path fill="none" stroke="grey" stroke-width="2" d="M311,-647.34C311,-640.75 311,-633.08 311,-625.67"/>
<polygon fill="grey" stroke="grey" stroke-width="2" points="314.5,-625.93 311,-615.93 307.5,-625.93 314.5,-625.93"/>
</g>
<!-- 17 -->
<g id="node18" class="node">
<title>17</title>
<path fill="none" stroke="#56d85b" stroke-width="2" d="M355,-756C355,-756 247,-756 247,-756 241,-756 235,-750 235,-744 235,-744 235,-732 235,-732 235,-726 241,-720 247,-720 247,-720 355,-720 355,-720 361,-720 367,-726 367,-732 367,-732 367,-744 367,-744 367,-750 361,-756 355,-756"/>
<text text-anchor="middle" x="301" y="-735.5" font-family="sans" font-size="10.00">join_SE_and_PE_mapping</text>
</g>
<!-- 17&#45;&gt;16 -->
<g id="edge31" class="edge">
<title>17&#45;&gt;16</title>
<path fill="none" stroke="grey" stroke-width="2" d="M303.52,-719.34C304.46,-712.75 305.56,-705.08 306.62,-697.67"/>
<polygon fill="grey" stroke="grey" stroke-width="2" points="310.07,-698.29 308.01,-687.9 303.14,-697.3 310.07,-698.29"/>
</g>
<!-- 18 -->
<g id="node19" class="node">
<title>18</title>
<path fill="none" stroke="#61d856" stroke-width="2" d="M221,-828C221,-828 165,-828 165,-828 159,-828 153,-822 153,-816 153,-816 153,-804 153,-804 153,-798 159,-792 165,-792 165,-792 221,-792 221,-792 227,-792 233,-798 233,-804 233,-804 233,-816 233,-816 233,-822 227,-828 221,-828"/>
<text text-anchor="middle" x="193" y="-813" font-family="sans" font-size="10.00">hisat2_3n_sort</text>
<text text-anchor="middle" x="193" y="-802" font-family="sans" font-size="10.00">ref: genome</text>
</g>
<!-- 18&#45;&gt;17 -->
<g id="edge32" class="edge">
<title>18&#45;&gt;17</title>
<path fill="none" stroke="grey" stroke-width="2" d="M220.53,-791.15C233.35,-782.84 248.82,-772.82 262.75,-763.79"/>
<polygon fill="grey" stroke="grey" stroke-width="2" points="264.49,-766.83 270.98,-758.46 260.68,-760.96 264.49,-766.83"/>
</g>
<!-- 19&#45;&gt;18 -->
<g id="edge34" class="edge">
<title>19&#45;&gt;18</title>
<path fill="none" stroke="grey" stroke-width="2" d="M362.72,-863.07C329.84,-854.07 289.45,-842.67 246.14,-829.22"/>
<polygon fill="grey" stroke="grey" stroke-width="2" points="247.32,-825.92 236.74,-826.28 245.23,-832.6 247.32,-825.92"/>
</g>
<!-- 25 -->
<g id="node26" class="node">
<title>25</title>
<path fill="none" stroke="#567bd8" stroke-width="2" d="M523.5,-828C523.5,-828 380.5,-828 380.5,-828 374.5,-828 368.5,-822 368.5,-816 368.5,-816 368.5,-804 368.5,-804 368.5,-798 374.5,-792 380.5,-792 380.5,-792 523.5,-792 523.5,-792 529.5,-792 535.5,-798 535.5,-804 535.5,-804 535.5,-816 535.5,-816 535.5,-822 529.5,-828 523.5,-828"/>
<text text-anchor="middle" x="452" y="-807.5" font-family="sans" font-size="10.00">hisat2_3n_mapping_contamination</text>
</g>
<!-- 19&#45;&gt;25 -->
<g id="edge42" class="edge">
<title>19&#45;&gt;25</title>
<path fill="none" stroke="grey" stroke-width="2" d="M435.55,-863.34C437.67,-856.59 440.15,-848.69 442.54,-841.11"/>
<polygon fill="grey" stroke="grey" stroke-width="2" points="445.81,-842.38 445.47,-831.79 439.13,-840.28 445.81,-842.38"/>
</g>
<!-- 20 -->
<g id="node21" class="node">
<title>20</title>
<path fill="none" stroke="#56d892" stroke-width="2" d="M338.5,-828C338.5,-828 263.5,-828 263.5,-828 257.5,-828 251.5,-822 251.5,-816 251.5,-816 251.5,-804 251.5,-804 251.5,-798 257.5,-792 263.5,-792 263.5,-792 338.5,-792 338.5,-792 344.5,-792 350.5,-798 350.5,-804 350.5,-804 350.5,-816 350.5,-816 350.5,-822 344.5,-828 338.5,-828"/>
<text text-anchor="middle" x="301" y="-813" font-family="sans" font-size="10.00">hisat2_3n_sort_PE</text>
<text text-anchor="middle" x="301" y="-802" font-family="sans" font-size="10.00">ref: genome</text>
</g>
<!-- 20&#45;&gt;17 -->
<g id="edge33" class="edge">
<title>20&#45;&gt;17</title>
<path fill="none" stroke="grey" stroke-width="2" d="M301,-791.34C301,-784.75 301,-777.08 301,-769.67"/>
<polygon fill="grey" stroke="grey" stroke-width="2" points="304.5,-769.93 301,-759.93 297.5,-769.93 304.5,-769.93"/>
</g>
<!-- 21&#45;&gt;20 -->
<g id="edge36" class="edge">
<title>21&#45;&gt;20</title>
<path fill="none" stroke="grey" stroke-width="2" d="M517.74,-864.6C474.39,-855.42 419.67,-843.31 363.6,-829.11"/>
<polygon fill="grey" stroke="grey" stroke-width="2" points="364.73,-825.79 354.18,-826.7 363,-832.57 364.73,-825.79"/>
</g>
<!-- 27 -->
<g id="node28" class="node">
<title>27</title>
<path fill="none" stroke="#d85656" stroke-width="2" d="M726.5,-828C726.5,-828 565.5,-828 565.5,-828 559.5,-828 553.5,-822 553.5,-816 553.5,-816 553.5,-804 553.5,-804 553.5,-798 559.5,-792 565.5,-792 565.5,-792 726.5,-792 726.5,-792 732.5,-792 738.5,-798 738.5,-804 738.5,-804 738.5,-816 738.5,-816 738.5,-822 732.5,-828 726.5,-828"/>
<text text-anchor="middle" x="646" y="-807.5" font-family="sans" font-size="10.00">hisat2_3n_mapping_contamination_PE</text>
</g>
<!-- 21&#45;&gt;27 -->
<g id="edge44" class="edge">
<title>21&#45;&gt;27</title>
<path fill="none" stroke="grey" stroke-width="2" d="M610.11,-863.34C615.08,-856.1 620.95,-847.53 626.49,-839.45"/>
<polygon fill="grey" stroke="grey" stroke-width="2" points="629.24,-841.62 632.01,-831.4 623.47,-837.67 629.24,-841.62"/>
</g>
<!-- 22 -->
<g id="node23" class="node">
<title>22</title>
<path fill="none" stroke="#5673d8" stroke-width="2" d="M648.5,-612C648.5,-612 595.5,-612 595.5,-612 589.5,-612 583.5,-606 583.5,-600 583.5,-600 583.5,-588 583.5,-588 583.5,-582 589.5,-576 595.5,-576 595.5,-576 648.5,-576 648.5,-576 654.5,-576 660.5,-582 660.5,-588 660.5,-588 660.5,-600 660.5,-600 660.5,-606 654.5,-612 648.5,-612"/>
<text text-anchor="middle" x="622" y="-591.5" font-family="sans" font-size="10.00">combine_runs</text>
</g>
<!-- 22&#45;&gt;9 -->
<g id="edge23" class="edge">
<title>22&#45;&gt;9</title>
<path fill="none" stroke="grey" stroke-width="2" d="M622,-575.34C622,-568.75 622,-561.08 622,-553.67"/>
<polygon fill="grey" stroke="grey" stroke-width="2" points="625.5,-553.93 622,-543.93 618.5,-553.93 625.5,-553.93"/>
</g>
<!-- 23 -->
<g id="node24" class="node">
<title>23</title>
<path fill="none" stroke="#56d85b" stroke-width="2" d="M676,-684C676,-684 568,-684 568,-684 562,-684 556,-678 556,-672 556,-672 556,-660 556,-660 556,-654 562,-648 568,-648 568,-648 676,-648 676,-648 682,-648 688,-654 688,-660 688,-660 688,-672 688,-672 688,-678 682,-684 676,-684"/>
<text text-anchor="middle" x="622" y="-663.5" font-family="sans" font-size="10.00">join_SE_and_PE_mapping</text>
</g>
<!-- 23&#45;&gt;22 -->
<g id="edge38" class="edge">
<title>23&#45;&gt;22</title>
<path fill="none" stroke="grey" stroke-width="2" d="M622,-647.34C622,-640.75 622,-633.08 622,-625.67"/>
<polygon fill="grey" stroke="grey" stroke-width="2" points="625.5,-625.93 622,-615.93 618.5,-625.93 625.5,-625.93"/>
</g>
<!-- 24 -->
<g id="node25" class="node">
<title>24</title>
<path fill="none" stroke="#61d856" stroke-width="2" d="M519.5,-756C519.5,-756 448.5,-756 448.5,-756 442.5,-756 436.5,-750 436.5,-744 436.5,-744 436.5,-732 436.5,-732 436.5,-726 442.5,-720 448.5,-720 448.5,-720 519.5,-720 519.5,-720 525.5,-720 531.5,-726 531.5,-732 531.5,-732 531.5,-744 531.5,-744 531.5,-750 525.5,-756 519.5,-756"/>
<text text-anchor="middle" x="484" y="-741" font-family="sans" font-size="10.00">hisat2_3n_sort</text>
<text text-anchor="middle" x="484" y="-730" font-family="sans" font-size="10.00">ref: contamination</text>
</g>
<!-- 24&#45;&gt;23 -->
<g id="edge39" class="edge">
<title>24&#45;&gt;23</title>
<path fill="none" stroke="grey" stroke-width="2" d="M519.18,-719.15C536.29,-710.47 557.09,-699.92 575.5,-690.59"/>
<polygon fill="grey" stroke="grey" stroke-width="2" points="576.85,-693.83 584.18,-686.18 573.68,-687.58 576.85,-693.83"/>
</g>
<!-- 25&#45;&gt;24 -->
<g id="edge41" class="edge">
<title>25&#45;&gt;24</title>
<path fill="none" stroke="grey" stroke-width="2" d="M460.07,-791.34C463.23,-784.43 466.94,-776.31 470.49,-768.56"/>
<polygon fill="grey" stroke="grey" stroke-width="2" points="473.58,-770.2 474.56,-759.65 467.22,-767.29 473.58,-770.2"/>
</g>
<!-- 26 -->
<g id="node27" class="node">
<title>26</title>
<path fill="none" stroke="#56d892" stroke-width="2" d="M667.5,-756C667.5,-756 592.5,-756 592.5,-756 586.5,-756 580.5,-750 580.5,-744 580.5,-744 580.5,-732 580.5,-732 580.5,-726 586.5,-720 592.5,-720 592.5,-720 667.5,-720 667.5,-720 673.5,-720 679.5,-726 679.5,-732 679.5,-732 679.5,-744 679.5,-744 679.5,-750 673.5,-756 667.5,-756"/>
<text text-anchor="middle" x="630" y="-741" font-family="sans" font-size="10.00">hisat2_3n_sort_PE</text>
<text text-anchor="middle" x="630" y="-730" font-family="sans" font-size="10.00">ref: contamination</text>
</g>
<!-- 26&#45;&gt;23 -->
<g id="edge40" class="edge">
<title>26&#45;&gt;23</title>
<path fill="none" stroke="grey" stroke-width="2" d="M627.98,-719.34C627.23,-712.75 626.35,-705.08 625.5,-697.67"/>
<polygon fill="grey" stroke="grey" stroke-width="2" points="629,-697.45 624.39,-687.91 622.05,-698.24 629,-697.45"/>
</g>
<!-- 27&#45;&gt;26 -->
<g id="edge43" class="edge">
<title>27&#45;&gt;26</title>
<path fill="none" stroke="grey" stroke-width="2" d="M641.96,-791.34C640.44,-784.67 638.66,-776.89 636.95,-769.39"/>
<polygon fill="grey" stroke="grey" stroke-width="2" points="640.41,-768.82 634.77,-759.85 633.58,-770.38 640.41,-768.82"/>
</g>
<!-- 28 -->
<g id="node29" class="node">
<title>28</title>
<path fill="none" stroke="#56d0d8" stroke-width="2" d="M247.5,-324C247.5,-324 160.5,-324 160.5,-324 154.5,-324 148.5,-318 148.5,-312 148.5,-312 148.5,-300 148.5,-300 148.5,-294 154.5,-288 160.5,-288 160.5,-288 247.5,-288 247.5,-288 253.5,-288 259.5,-294 259.5,-300 259.5,-300 259.5,-312 259.5,-312 259.5,-318 253.5,-324 247.5,-324"/>
<text text-anchor="middle" x="204" y="-303.5" font-family="sans" font-size="10.00">count_genome_single</text>
</g>
<!-- 28&#45;&gt;0 -->
<g id="edge6" class="edge">
<title>28&#45;&gt;0</title>
<path fill="none" stroke="grey" stroke-width="2" d="M206.92,-287.04C215.43,-241.3 244.9,-120.56 325,-72 383.01,-36.83 586.02,-24.31 673.45,-20.48"/>
<polygon fill="grey" stroke="grey" stroke-width="2" points="673.33,-23.99 683.18,-20.07 673.04,-16.99 673.33,-23.99"/>
</g>
<!-- 29&#45;&gt;28 -->
<g id="edge45" class="edge">
<title>29&#45;&gt;28</title>
<path fill="none" stroke="grey" stroke-width="2" d="M265.26,-578.25C247.12,-569.97 227.99,-557.66 217,-540 177.75,-476.91 188.06,-384.64 197.07,-337.37"/>
<polygon fill="grey" stroke="grey" stroke-width="2" points="200.47,-338.22 199.05,-327.73 193.61,-336.82 200.47,-338.22"/>
</g>
<!-- 38 -->
<g id="node39" class="node">
<title>38</title>
<path fill="none" stroke="#8fd856" stroke-width="2" d="M497.5,-540C497.5,-540 426.5,-540 426.5,-540 420.5,-540 414.5,-534 414.5,-528 414.5,-528 414.5,-516 414.5,-516 414.5,-510 420.5,-504 426.5,-504 426.5,-504 497.5,-504 497.5,-504 503.5,-504 509.5,-510 509.5,-516 509.5,-516 509.5,-528 509.5,-528 509.5,-534 503.5,-540 497.5,-540"/>
<text text-anchor="middle" x="462" y="-519.5" font-family="sans" font-size="10.00">hisat2_3n_filtering</text>
</g>
<!-- 29&#45;&gt;38 -->
<g id="edge55" class="edge">
<title>29&#45;&gt;38</title>
<path fill="none" stroke="grey" stroke-width="2" d="M349.49,-575.15C368.41,-566.38 391.45,-555.71 411.74,-546.3"/>
<polygon fill="grey" stroke="grey" stroke-width="2" points="412.97,-549.59 420.57,-542.21 410.02,-543.24 412.97,-549.59"/>
</g>
<!-- 40 -->
<g id="node41" class="node">
<title>40</title>
<path fill="none" stroke="#56b1d8" stroke-width="2" d="M384,-540C384,-540 238,-540 238,-540 232,-540 226,-534 226,-528 226,-528 226,-516 226,-516 226,-510 232,-504 238,-504 238,-504 384,-504 384,-504 390,-504 396,-510 396,-516 396,-516 396,-528 396,-528 396,-534 390,-540 384,-540"/>
<text text-anchor="middle" x="311" y="-519.5" font-family="sans" font-size="10.00">hisat2_3n_calling_unfiltered_unique</text>
</g>
<!-- 29&#45;&gt;40 -->
<g id="edge57" class="edge">
<title>29&#45;&gt;40</title>
<path fill="none" stroke="grey" stroke-width="2" d="M311,-575.34C311,-568.75 311,-561.08 311,-553.67"/>
<polygon fill="grey" stroke="grey" stroke-width="2" points="314.5,-553.93 311,-543.93 307.5,-553.93 314.5,-553.93"/>
</g>
<!-- 30 -->
<g id="node31" class="node">
<title>30</title>
<path fill="none" stroke="#afd856" stroke-width="2" d="M1207.5,-396C1207.5,-396 1098.5,-396 1098.5,-396 1092.5,-396 1086.5,-390 1086.5,-384 1086.5,-384 1086.5,-372 1086.5,-372 1086.5,-366 1092.5,-360 1098.5,-360 1098.5,-360 1207.5,-360 1207.5,-360 1213.5,-360 1219.5,-366 1219.5,-372 1219.5,-372 1219.5,-384 1219.5,-384 1219.5,-390 1213.5,-396 1207.5,-396"/>
<text text-anchor="middle" x="1153" y="-381" font-family="sans" font-size="10.00">calculate_methylation_rate</text>
<text text-anchor="middle" x="1153" y="-370" font-family="sans" font-size="10.00">is_filtered: filtered</text>
</g>
<!-- 30&#45;&gt;0 -->
<g id="edge7" class="edge">
<title>30&#45;&gt;0</title>
<path fill="none" stroke="grey" stroke-width="2" d="M1161.27,-359.05C1172.72,-332.53 1192,-281.02 1192,-235 1192,-235 1192,-235 1192,-161 1192,-70.02 869.8,-32.72 754.46,-22.28"/>
<polygon fill="grey" stroke="grey" stroke-width="2" points="755.05,-18.81 744.78,-21.42 754.44,-25.79 755.05,-18.81"/>
</g>
<!-- 31 -->
<g id="node32" class="node">
<title>31</title>
<path fill="none" stroke="#56a9d8" stroke-width="2" d="M1123,-468C1123,-468 987,-468 987,-468 981,-468 975,-462 975,-456 975,-456 975,-444 975,-444 975,-438 981,-432 987,-432 987,-432 1123,-432 1123,-432 1129,-432 1135,-438 1135,-444 1135,-444 1135,-456 1135,-456 1135,-462 1129,-468 1123,-468"/>
<text text-anchor="middle" x="1055" y="-447.5" font-family="sans" font-size="10.00">hisat2_3n_calling_filtered_unqiue</text>
</g>
<!-- 31&#45;&gt;30 -->
<g id="edge47" class="edge">
<title>31&#45;&gt;30</title>
<path fill="none" stroke="grey" stroke-width="2" d="M1079.98,-431.15C1091.39,-423.01 1105.1,-413.22 1117.54,-404.33"/>
<polygon fill="grey" stroke="grey" stroke-width="2" points="1119.5,-407.23 1125.6,-398.57 1115.43,-401.54 1119.5,-407.23"/>
</g>
<!-- 42 -->
<g id="node43" class="node">
<title>42</title>
<path fill="none" stroke="#68d856" stroke-width="2" d="M980,-180C980,-180 876,-180 876,-180 870,-180 864,-174 864,-168 864,-168 864,-156 864,-156 864,-150 870,-144 876,-144 876,-144 980,-144 980,-144 986,-144 992,-150 992,-156 992,-156 992,-168 992,-168 992,-174 986,-180 980,-180"/>
<text text-anchor="middle" x="928" y="-159.5" font-family="sans" font-size="10.00">merge_raw_data_to_sites</text>
</g>
<!-- 31&#45;&gt;42 -->
<g id="edge61" class="edge">
<title>31&#45;&gt;42</title>
<path fill="none" stroke="grey" stroke-width="2" d="M1054.98,-431.3C1054.14,-390.05 1047.22,-285.74 1001,-216 993.8,-205.13 983.56,-195.73 973.02,-187.98"/>
<polygon fill="grey" stroke="grey" stroke-width="2" points="975.22,-185.25 964.99,-182.51 971.28,-191.03 975.22,-185.25"/>
</g>
<!-- 45 -->
<g id="node46" class="node">
<title>45</title>
<path fill="none" stroke="#56d86b" stroke-width="2" d="M980,-396C980,-396 904,-396 904,-396 898,-396 892,-390 892,-384 892,-384 892,-372 892,-372 892,-366 898,-360 904,-360 904,-360 980,-360 980,-360 986,-360 992,-366 992,-372 992,-372 992,-384 992,-384 992,-390 986,-396 980,-396"/>
<text text-anchor="middle" x="942" y="-381" font-family="sans" font-size="10.00">select_called_sites</text>
<text text-anchor="middle" x="942" y="-370" font-family="sans" font-size="10.00">group: DMSO</text>
</g>
<!-- 31&#45;&gt;45 -->
<g id="edge65" class="edge">
<title>31&#45;&gt;45</title>
<path fill="none" stroke="grey" stroke-width="2" d="M1026.19,-431.15C1012.65,-422.76 996.28,-412.62 981.59,-403.52"/>
<polygon fill="grey" stroke="grey" stroke-width="2" points="983.67,-400.7 973.33,-398.41 979.99,-406.65 983.67,-400.7"/>
</g>
<!-- 48 -->
<g id="node49" class="node">
<title>48</title>
<path fill="none" stroke="#56d8a9" stroke-width="2" d="M1152,-252C1152,-252 1060,-252 1060,-252 1054,-252 1048,-246 1048,-240 1048,-240 1048,-228 1048,-228 1048,-222 1054,-216 1060,-216 1060,-216 1152,-216 1152,-216 1158,-216 1164,-222 1164,-228 1164,-228 1164,-240 1164,-240 1164,-246 1158,-252 1152,-252"/>
<text text-anchor="middle" x="1106" y="-231.5" font-family="sans" font-size="10.00">pick_background_sites</text>
</g>
<!-- 31&#45;&gt;48 -->
<g id="edge69" class="edge">
<title>31&#45;&gt;48</title>
<path fill="none" stroke="grey" stroke-width="2" d="M1059.26,-431.12C1067.98,-394.54 1087.94,-310.77 1098.74,-265.45"/>
<polygon fill="grey" stroke="grey" stroke-width="2" points="1102.1,-266.46 1101.01,-255.92 1095.29,-264.84 1102.1,-266.46"/>
</g>
<!-- 32 -->
<g id="node33" class="node">
<title>32</title>
<path fill="none" stroke="#8fd856" stroke-width="2" d="M968.5,-540C968.5,-540 897.5,-540 897.5,-540 891.5,-540 885.5,-534 885.5,-528 885.5,-528 885.5,-516 885.5,-516 885.5,-510 891.5,-504 897.5,-504 897.5,-504 968.5,-504 968.5,-504 974.5,-504 980.5,-510 980.5,-516 980.5,-516 980.5,-528 980.5,-528 980.5,-534 974.5,-540 968.5,-540"/>
<text text-anchor="middle" x="933" y="-519.5" font-family="sans" font-size="10.00">hisat2_3n_filtering</text>
</g>
<!-- 32&#45;&gt;31 -->
<g id="edge48" class="edge">
<title>32&#45;&gt;31</title>
<path fill="none" stroke="grey" stroke-width="2" d="M964.1,-503.15C978.87,-494.68 996.75,-484.42 1012.73,-475.25"/>
<polygon fill="grey" stroke="grey" stroke-width="2" points="1014.4,-478.33 1021.33,-470.32 1010.91,-472.26 1014.4,-478.33"/>
</g>
<!-- 46 -->
<g id="node47" class="node">
<title>46</title>
<path fill="none" stroke="#78d856" stroke-width="2" d="M945,-468C945,-468 817,-468 817,-468 811,-468 805,-462 805,-456 805,-456 805,-444 805,-444 805,-438 811,-432 817,-432 817,-432 945,-432 945,-432 951,-432 957,-438 957,-444 957,-444 957,-456 957,-456 957,-462 951,-468 945,-468"/>
<text text-anchor="middle" x="881" y="-447.5" font-family="sans" font-size="10.00">hisat2_3n_calling_filtered_multi</text>
</g>
<!-- 32&#45;&gt;46 -->
<g id="edge67" class="edge">
<title>32&#45;&gt;46</title>
<path fill="none" stroke="grey" stroke-width="2" d="M919.88,-503.34C914.44,-496.01 907.99,-487.34 901.93,-479.18"/>
<polygon fill="grey" stroke="grey" stroke-width="2" points="904.88,-477.27 896.1,-471.33 899.26,-481.45 904.88,-477.27"/>
</g>
<!-- 33&#45;&gt;32 -->
<g id="edge49" class="edge">
<title>33&#45;&gt;32</title>
<path fill="none" stroke="grey" stroke-width="2" d="M828.69,-575.15C846.05,-566.47 867.15,-555.92 885.82,-546.59"/>
<polygon fill="grey" stroke="grey" stroke-width="2" points="887.29,-549.77 894.67,-542.17 884.16,-543.51 887.29,-549.77"/>
</g>
<!-- 35 -->
<g id="node36" class="node">
<title>35</title>
<path fill="none" stroke="#56b1d8" stroke-width="2" d="M855,-540C855,-540 709,-540 709,-540 703,-540 697,-534 697,-528 697,-528 697,-516 697,-516 697,-510 703,-504 709,-504 709,-504 855,-504 855,-504 861,-504 867,-510 867,-516 867,-516 867,-528 867,-528 867,-534 861,-540 855,-540"/>
<text text-anchor="middle" x="782" y="-519.5" font-family="sans" font-size="10.00">hisat2_3n_calling_unfiltered_unique</text>
</g>
<!-- 33&#45;&gt;35 -->
<g id="edge52" class="edge">
<title>33&#45;&gt;35</title>
<path fill="none" stroke="grey" stroke-width="2" d="M790.22,-575.34C789.19,-568.75 787.98,-561.08 786.82,-553.67"/>
<polygon fill="grey" stroke="grey" stroke-width="2" points="790.29,-553.23 785.28,-543.89 783.38,-554.31 790.29,-553.23"/>
</g>
<!-- 34 -->
<g id="node35" class="node">
<title>34</title>
<path fill="none" stroke="#afd856" stroke-width="2" d="M823.5,-396C823.5,-396 714.5,-396 714.5,-396 708.5,-396 702.5,-390 702.5,-384 702.5,-384 702.5,-372 702.5,-372 702.5,-366 708.5,-360 714.5,-360 714.5,-360 823.5,-360 823.5,-360 829.5,-360 835.5,-366 835.5,-372 835.5,-372 835.5,-384 835.5,-384 835.5,-390 829.5,-396 823.5,-396"/>
<text text-anchor="middle" x="769" y="-381" font-family="sans" font-size="10.00">calculate_methylation_rate</text>
<text text-anchor="middle" x="769" y="-370" font-family="sans" font-size="10.00">is_filtered: unfiltered</text>
</g>
<!-- 34&#45;&gt;0 -->
<g id="edge8" class="edge">
<title>34&#45;&gt;0</title>
<path fill="none" stroke="grey" stroke-width="2" d="M770.04,-359.07C771.5,-332.15 774,-279.65 774,-235 774,-235 774,-235 774,-161 774,-120.03 767.08,-109.24 750,-72 746.14,-63.58 740.97,-55.02 735.77,-47.32"/>
<polygon fill="grey" stroke="grey" stroke-width="2" points="738.66,-45.33 730.01,-39.21 732.95,-49.39 738.66,-45.33"/>
</g>
<!-- 35&#45;&gt;34 -->
<g id="edge51" class="edge">
<title>35&#45;&gt;34</title>
<path fill="none" stroke="grey" stroke-width="2" d="M780.35,-503.02C778.2,-479.54 774.41,-438.11 771.8,-409.64"/>
<polygon fill="grey" stroke="grey" stroke-width="2" points="775.31,-409.49 770.91,-399.85 768.34,-410.13 775.31,-409.49"/>
</g>
<!-- 36 -->
<g id="node37" class="node">
<title>36</title>
<path fill="none" stroke="#afd856" stroke-width="2" d="M695.5,-324C695.5,-324 586.5,-324 586.5,-324 580.5,-324 574.5,-318 574.5,-312 574.5,-312 574.5,-300 574.5,-300 574.5,-294 580.5,-288 586.5,-288 586.5,-288 695.5,-288 695.5,-288 701.5,-288 707.5,-294 707.5,-300 707.5,-300 707.5,-312 707.5,-312 707.5,-318 701.5,-324 695.5,-324"/>
<text text-anchor="middle" x="641" y="-309" font-family="sans" font-size="10.00">calculate_methylation_rate</text>
<text text-anchor="middle" x="641" y="-298" font-family="sans" font-size="10.00">is_filtered: filtered</text>
</g>
<!-- 36&#45;&gt;0 -->
<g id="edge9" class="edge">
<title>36&#45;&gt;0</title>
<path fill="none" stroke="grey" stroke-width="2" d="M649.35,-287.14C653.85,-277 659.24,-263.98 663,-252 685.34,-180.91 701.47,-94.63 709.09,-49.65"/>
<polygon fill="grey" stroke="grey" stroke-width="2" points="712.54,-50.24 710.72,-39.8 705.63,-49.1 712.54,-50.24"/>
</g>
<!-- 37 -->
<g id="node38" class="node">
<title>37</title>
<path fill="none" stroke="#56a9d8" stroke-width="2" d="M634,-468C634,-468 498,-468 498,-468 492,-468 486,-462 486,-456 486,-456 486,-444 486,-444 486,-438 492,-432 498,-432 498,-432 634,-432 634,-432 640,-432 646,-438 646,-444 646,-444 646,-456 646,-456 646,-462 640,-468 634,-468"/>
<text text-anchor="middle" x="566" y="-447.5" font-family="sans" font-size="10.00">hisat2_3n_calling_filtered_unqiue</text>
</g>
<!-- 37&#45;&gt;36 -->
<g id="edge53" class="edge">
<title>37&#45;&gt;36</title>
<path fill="none" stroke="grey" stroke-width="2" d="M575.5,-431.02C588.12,-407.12 610.58,-364.59 625.63,-336.1"/>
<polygon fill="grey" stroke="grey" stroke-width="2" points="628.59,-337.99 630.16,-327.52 622.4,-334.72 628.59,-337.99"/>
</g>
<!-- 50 -->
<g id="node51" class="node">
<title>50</title>
<path fill="none" stroke="#68d856" stroke-width="2" d="M487,-180C487,-180 383,-180 383,-180 377,-180 371,-174 371,-168 371,-168 371,-156 371,-156 371,-150 377,-144 383,-144 383,-144 487,-144 487,-144 493,-144 499,-150 499,-156 499,-156 499,-168 499,-168 499,-174 493,-180 487,-180"/>
<text text-anchor="middle" x="435" y="-159.5" font-family="sans" font-size="10.00">merge_raw_data_to_sites</text>
</g>
<!-- 37&#45;&gt;50 -->
<g id="edge74" class="edge">
<title>37&#45;&gt;50</title>
<path fill="none" stroke="grey" stroke-width="2" d="M561.47,-431.1C549.18,-383.21 514.5,-253.3 491,-216 484.95,-206.39 476.76,-197.34 468.52,-189.52"/>
<polygon fill="grey" stroke="grey" stroke-width="2" points="470.98,-187.02 461.19,-182.97 466.31,-192.24 470.98,-187.02"/>
</g>
<!-- 53 -->
<g id="node54" class="node">
<title>53</title>
<path fill="none" stroke="#56d86b" stroke-width="2" d="M457,-396C457,-396 381,-396 381,-396 375,-396 369,-390 369,-384 369,-384 369,-372 369,-372 369,-366 375,-360 381,-360 381,-360 457,-360 457,-360 463,-360 469,-366 469,-372 469,-372 469,-384 469,-384 469,-390 463,-396 457,-396"/>
<text text-anchor="middle" x="419" y="-381" font-family="sans" font-size="10.00">select_called_sites</text>
<text text-anchor="middle" x="419" y="-370" font-family="sans" font-size="10.00">group: DMSO</text>
</g>
<!-- 37&#45;&gt;53 -->
<g id="edge78" class="edge">
<title>37&#45;&gt;53</title>
<path fill="none" stroke="grey" stroke-width="2" d="M528.53,-431.15C510.19,-422.43 487.89,-411.81 468.21,-402.43"/>
<polygon fill="grey" stroke="grey" stroke-width="2" points="469.93,-399.37 459.39,-398.24 466.92,-405.69 469.93,-399.37"/>
</g>
<!-- 56 -->
<g id="node57" class="node">
<title>56</title>
<path fill="none" stroke="#56d8a9" stroke-width="2" d="M642,-252C642,-252 550,-252 550,-252 544,-252 538,-246 538,-240 538,-240 538,-228 538,-228 538,-222 544,-216 550,-216 550,-216 642,-216 642,-216 648,-216 654,-222 654,-228 654,-228 654,-240 654,-240 654,-246 648,-252 642,-252"/>
<text text-anchor="middle" x="596" y="-231.5" font-family="sans" font-size="10.00">pick_background_sites</text>
</g>
<!-- 37&#45;&gt;56 -->
<g id="edge82" class="edge">
<title>37&#45;&gt;56</title>
<path fill="none" stroke="grey" stroke-width="2" d="M562.84,-431.21C558.16,-401.1 551.33,-338.45 565,-288 567.3,-279.53 571.32,-271.02 575.73,-263.38"/>
<polygon fill="grey" stroke="grey" stroke-width="2" points="578.56,-265.46 580.92,-255.13 572.63,-261.73 578.56,-265.46"/>
</g>
<!-- 38&#45;&gt;37 -->
<g id="edge54" class="edge">
<title>38&#45;&gt;37</title>
<path fill="none" stroke="grey" stroke-width="2" d="M488.51,-503.15C500.74,-494.93 515.46,-485.02 528.77,-476.06"/>
<polygon fill="grey" stroke="grey" stroke-width="2" points="530.68,-478.99 537.02,-470.5 526.77,-473.18 530.68,-478.99"/>
</g>
<!-- 54 -->
<g id="node55" class="node">
<title>54</title>
<path fill="none" stroke="#78d856" stroke-width="2" d="M456,-468C456,-468 328,-468 328,-468 322,-468 316,-462 316,-456 316,-456 316,-444 316,-444 316,-438 322,-432 328,-432 328,-432 456,-432 456,-432 462,-432 468,-438 468,-444 468,-444 468,-456 468,-456 468,-462 462,-468 456,-468"/>
<text text-anchor="middle" x="392" y="-447.5" font-family="sans" font-size="10.00">hisat2_3n_calling_filtered_multi</text>
</g>
<!-- 38&#45;&gt;54 -->
<g id="edge80" class="edge">
<title>38&#45;&gt;54</title>
<path fill="none" stroke="grey" stroke-width="2" d="M444.34,-503.34C436.69,-495.69 427.56,-486.56 419.08,-478.08"/>
<polygon fill="grey" stroke="grey" stroke-width="2" points="421.59,-475.64 412.04,-471.04 416.64,-480.59 421.59,-475.64"/>
</g>
<!-- 39 -->
<g id="node40" class="node">
<title>39</title>
<path fill="none" stroke="#afd856" stroke-width="2" d="M455.5,-108C455.5,-108 346.5,-108 346.5,-108 340.5,-108 334.5,-102 334.5,-96 334.5,-96 334.5,-84 334.5,-84 334.5,-78 340.5,-72 346.5,-72 346.5,-72 455.5,-72 455.5,-72 461.5,-72 467.5,-78 467.5,-84 467.5,-84 467.5,-96 467.5,-96 467.5,-102 461.5,-108 455.5,-108"/>
<text text-anchor="middle" x="401" y="-93" font-family="sans" font-size="10.00">calculate_methylation_rate</text>
<text text-anchor="middle" x="401" y="-82" font-family="sans" font-size="10.00">is_filtered: unfiltered</text>
</g>
<!-- 39&#45;&gt;0 -->
<g id="edge10" class="edge">
<title>39&#45;&gt;0</title>
<path fill="none" stroke="grey" stroke-width="2" d="M468.15,-73.98C530.61,-60.01 621.63,-39.66 673.61,-28.03"/>
<polygon fill="grey" stroke="grey" stroke-width="2" points="674.3,-31.47 683.29,-25.87 672.77,-24.63 674.3,-31.47"/>
</g>
<!-- 40&#45;&gt;39 -->
<g id="edge56" class="edge">
<title>40&#45;&gt;39</title>
<path fill="none" stroke="grey" stroke-width="2" d="M306.23,-503.22C299.5,-476.47 288,-424.2 288,-379 288,-379 288,-379 288,-233 288,-183.82 330.02,-141.82 362.81,-116.52"/>
<polygon fill="grey" stroke="grey" stroke-width="2" points="364.69,-119.49 370.64,-110.72 360.52,-113.87 364.69,-119.49"/>
</g>
<!-- 41 -->
<g id="node42" class="node">
<title>41</title>
<path fill="none" stroke="#56d8c9" stroke-width="2" d="M947,-108C947,-108 909,-108 909,-108 903,-108 897,-102 897,-96 897,-96 897,-84 897,-84 897,-78 903,-72 909,-72 909,-72 947,-72 947,-72 953,-72 959,-78 959,-84 959,-84 959,-96 959,-96 959,-102 953,-108 947,-108"/>
<text text-anchor="middle" x="928" y="-87.5" font-family="sans" font-size="10.00">filter_sites</text>
</g>
<!-- 41&#45;&gt;0 -->
<g id="edge11" class="edge">
<title>41&#45;&gt;0</title>
<path fill="none" stroke="grey" stroke-width="2" d="M896.42,-78.67C858.68,-66.32 795.46,-45.65 754.24,-32.16"/>
<polygon fill="grey" stroke="grey" stroke-width="2" points="755.42,-28.87 744.83,-29.08 753.25,-35.52 755.42,-28.87"/>
</g>
<!-- 42&#45;&gt;41 -->
<g id="edge58" class="edge">
<title>42&#45;&gt;41</title>
<path fill="none" stroke="grey" stroke-width="2" d="M928,-143.34C928,-136.75 928,-129.08 928,-121.67"/>
<polygon fill="grey" stroke="grey" stroke-width="2" points="931.5,-121.93 928,-111.93 924.5,-121.93 931.5,-121.93"/>
</g>
<!-- 43 -->
<g id="node44" class="node">
<title>43</title>
<path fill="none" stroke="#56d882" stroke-width="2" d="M980,-252C980,-252 876,-252 876,-252 870,-252 864,-246 864,-240 864,-240 864,-228 864,-228 864,-222 870,-216 876,-216 876,-216 980,-216 980,-216 986,-216 992,-222 992,-228 992,-228 992,-240 992,-240 992,-246 986,-252 980,-252"/>
<text text-anchor="middle" x="928" y="-231.5" font-family="sans" font-size="10.00">annotate_combined_sites</text>
</g>
<!-- 43&#45;&gt;42 -->
<g id="edge60" class="edge">
<title>43&#45;&gt;42</title>
<path fill="none" stroke="grey" stroke-width="2" d="M928,-215.34C928,-208.75 928,-201.08 928,-193.67"/>
<polygon fill="grey" stroke="grey" stroke-width="2" points="931.5,-193.93 928,-183.93 924.5,-193.93 931.5,-193.93"/>
</g>
<!-- 44 -->
<g id="node45" class="node">
<title>44</title>
<path fill="none" stroke="#569ad8" stroke-width="2" d="M980,-324C980,-324 888,-324 888,-324 882,-324 876,-318 876,-312 876,-312 876,-300 876,-300 876,-294 882,-288 888,-288 888,-288 980,-288 980,-288 986,-288 992,-294 992,-300 992,-300 992,-312 992,-312 992,-318 986,-324 980,-324"/>
<text text-anchor="middle" x="934" y="-303.5" font-family="sans" font-size="10.00">combined_select_sites</text>
</g>
<!-- 44&#45;&gt;43 -->
<g id="edge63" class="edge">
<title>44&#45;&gt;43</title>
<path fill="none" stroke="grey" stroke-width="2" d="M932.49,-287.34C931.92,-280.75 931.26,-273.08 930.63,-265.67"/>
<polygon fill="grey" stroke="grey" stroke-width="2" points="934.13,-265.58 929.79,-255.92 927.16,-266.18 934.13,-265.58"/>
</g>
<!-- 44&#45;&gt;48 -->
<g id="edge70" class="edge">
<title>44&#45;&gt;48</title>
<path fill="none" stroke="grey" stroke-width="2" d="M977.85,-287.15C999.8,-278.22 1026.62,-267.31 1050.04,-257.77"/>
<polygon fill="grey" stroke="grey" stroke-width="2" points="1051.19,-261.09 1059.13,-254.08 1048.55,-254.6 1051.19,-261.09"/>
</g>
<!-- 45&#45;&gt;44 -->
<g id="edge64" class="edge">
<title>45&#45;&gt;44</title>
<path fill="none" stroke="grey" stroke-width="2" d="M939.98,-359.34C939.23,-352.75 938.35,-345.08 937.5,-337.67"/>
<polygon fill="grey" stroke="grey" stroke-width="2" points="941,-337.45 936.39,-327.91 934.05,-338.24 941,-337.45"/>
</g>
<!-- 46&#45;&gt;42 -->
<g id="edge62" class="edge">
<title>46&#45;&gt;42</title>
<path fill="none" stroke="grey" stroke-width="2" d="M872.64,-431.15C854.88,-390.45 817.94,-288.71 855,-216 860.65,-204.92 869.82,-195.61 879.78,-188.05"/>
<polygon fill="grey" stroke="grey" stroke-width="2" points="881.58,-191.05 887.84,-182.5 877.62,-185.29 881.58,-191.05"/>
</g>
<!-- 46&#45;&gt;45 -->
<g id="edge66" class="edge">
<title>46&#45;&gt;45</title>
<path fill="none" stroke="grey" stroke-width="2" d="M896.39,-431.34C902.92,-423.85 910.67,-414.95 917.92,-406.63"/>
<polygon fill="grey" stroke="grey" stroke-width="2" points="920.48,-409.02 924.41,-399.18 915.2,-404.42 920.48,-409.02"/>
</g>
<!-- 47 -->
<g id="node48" class="node">
<title>47</title>
<path fill="none" stroke="#c6d856" stroke-width="2" d="M1137.5,-180C1137.5,-180 1036.5,-180 1036.5,-180 1030.5,-180 1024.5,-174 1024.5,-168 1024.5,-168 1024.5,-156 1024.5,-156 1024.5,-150 1030.5,-144 1036.5,-144 1036.5,-144 1137.5,-144 1137.5,-144 1143.5,-144 1149.5,-150 1149.5,-156 1149.5,-156 1149.5,-168 1149.5,-168 1149.5,-174 1143.5,-180 1137.5,-180"/>
<text text-anchor="middle" x="1087" y="-159.5" font-family="sans" font-size="10.00">stat_sample_background</text>
</g>
<!-- 47&#45;&gt;41 -->
<g id="edge59" class="edge">
<title>47&#45;&gt;41</title>
<path fill="none" stroke="grey" stroke-width="2" d="M1046.47,-143.15C1023.59,-133.08 994.99,-120.49 971.62,-110.21"/>
<polygon fill="grey" stroke="grey" stroke-width="2" points="973.27,-107.11 962.71,-106.28 970.45,-113.51 973.27,-107.11"/>
</g>
<!-- 48&#45;&gt;47 -->
<g id="edge68" class="edge">
<title>48&#45;&gt;47</title>
<path fill="none" stroke="grey" stroke-width="2" d="M1101.21,-215.34C1099.4,-208.67 1097.28,-200.89 1095.25,-193.39"/>
<polygon fill="grey" stroke="grey" stroke-width="2" points="1098.65,-192.56 1092.65,-183.82 1091.89,-194.39 1098.65,-192.56"/>
</g>
<!-- 49 -->
<g id="node50" class="node">
<title>49</title>
<path fill="none" stroke="#56d8c9" stroke-width="2" d="M615,-108C615,-108 577,-108 577,-108 571,-108 565,-102 565,-96 565,-96 565,-84 565,-84 565,-78 571,-72 577,-72 577,-72 615,-72 615,-72 621,-72 627,-78 627,-84 627,-84 627,-96 627,-96 627,-102 621,-108 615,-108"/>
<text text-anchor="middle" x="596" y="-87.5" font-family="sans" font-size="10.00">filter_sites</text>
</g>
<!-- 49&#45;&gt;0 -->
<g id="edge12" class="edge">
<title>49&#45;&gt;0</title>
<path fill="none" stroke="grey" stroke-width="2" d="M626.08,-71.15C641.03,-62.29 659.26,-51.47 675.24,-41.99"/>
<polygon fill="grey" stroke="grey" stroke-width="2" points="676.98,-45.03 683.8,-36.92 673.41,-39.01 676.98,-45.03"/>
</g>
<!-- 50&#45;&gt;49 -->
<g id="edge71" class="edge">
<title>50&#45;&gt;49</title>
<path fill="none" stroke="grey" stroke-width="2" d="M476.04,-143.15C499.37,-133.01 528.56,-120.32 552.31,-109.99"/>
<polygon fill="grey" stroke="grey" stroke-width="2" points="553.62,-113.24 561.4,-106.04 550.83,-106.82 553.62,-113.24"/>
</g>
<!-- 51 -->
<g id="node52" class="node">
<title>51</title>
<path fill="none" stroke="#56d882" stroke-width="2" d="M470,-252C470,-252 366,-252 366,-252 360,-252 354,-246 354,-240 354,-240 354,-228 354,-228 354,-222 360,-216 366,-216 366,-216 470,-216 470,-216 476,-216 482,-222 482,-228 482,-228 482,-240 482,-240 482,-246 476,-252 470,-252"/>
<text text-anchor="middle" x="418" y="-231.5" font-family="sans" font-size="10.00">annotate_combined_sites</text>
</g>
<!-- 51&#45;&gt;50 -->
<g id="edge73" class="edge">
<title>51&#45;&gt;50</title>
<path fill="none" stroke="grey" stroke-width="2" d="M422.29,-215.34C423.91,-208.67 425.8,-200.89 427.62,-193.39"/>
<polygon fill="grey" stroke="grey" stroke-width="2" points="430.98,-194.39 429.94,-183.84 424.18,-192.73 430.98,-194.39"/>
</g>
<!-- 52 -->
<g id="node53" class="node">
<title>52</title>
<path fill="none" stroke="#569ad8" stroke-width="2" d="M465,-324C465,-324 373,-324 373,-324 367,-324 361,-318 361,-312 361,-312 361,-300 361,-300 361,-294 367,-288 373,-288 373,-288 465,-288 465,-288 471,-288 477,-294 477,-300 477,-300 477,-312 477,-312 477,-318 471,-324 465,-324"/>
<text text-anchor="middle" x="419" y="-303.5" font-family="sans" font-size="10.00">combined_select_sites</text>
</g>
<!-- 52&#45;&gt;51 -->
<g id="edge76" class="edge">
<title>52&#45;&gt;51</title>
<path fill="none" stroke="grey" stroke-width="2" d="M418.75,-287.34C418.65,-280.75 418.54,-273.08 418.44,-265.67"/>
<polygon fill="grey" stroke="grey" stroke-width="2" points="421.94,-265.88 418.3,-255.93 414.94,-265.98 421.94,-265.88"/>
</g>
<!-- 52&#45;&gt;56 -->
<g id="edge83" class="edge">
<title>52&#45;&gt;56</title>
<path fill="none" stroke="grey" stroke-width="2" d="M464.12,-287.15C486.82,-278.18 514.57,-267.21 538.74,-257.64"/>
<polygon fill="grey" stroke="grey" stroke-width="2" points="539.83,-260.98 547.84,-254.05 537.25,-254.47 539.83,-260.98"/>
</g>
<!-- 53&#45;&gt;52 -->
<g id="edge77" class="edge">
<title>53&#45;&gt;52</title>
<path fill="none" stroke="grey" stroke-width="2" d="M419,-359.34C419,-352.75 419,-345.08 419,-337.67"/>
<polygon fill="grey" stroke="grey" stroke-width="2" points="422.5,-337.93 419,-327.93 415.5,-337.93 422.5,-337.93"/>
</g>
<!-- 54&#45;&gt;50 -->
<g id="edge75" class="edge">
<title>54&#45;&gt;50</title>
<path fill="none" stroke="grey" stroke-width="2" d="M378.66,-431.33C371.92,-421.45 364.28,-408.62 360,-396 334.22,-319.97 305.16,-285.69 345,-216 351.75,-204.19 362.27,-194.75 373.78,-187.3"/>
<polygon fill="grey" stroke="grey" stroke-width="2" points="375.52,-190.34 382.4,-182.29 372,-184.29 375.52,-190.34"/>
</g>
<!-- 54&#45;&gt;53 -->
<g id="edge79" class="edge">
<title>54&#45;&gt;53</title>
<path fill="none" stroke="grey" stroke-width="2" d="M398.81,-431.34C401.45,-424.51 404.54,-416.5 407.49,-408.83"/>
<polygon fill="grey" stroke="grey" stroke-width="2" points="410.67,-410.32 411.01,-399.73 404.14,-407.8 410.67,-410.32"/>
</g>
<!-- 55 -->
<g id="node56" class="node">
<title>55</title>
<path fill="none" stroke="#c6d856" stroke-width="2" d="M646.5,-180C646.5,-180 545.5,-180 545.5,-180 539.5,-180 533.5,-174 533.5,-168 533.5,-168 533.5,-156 533.5,-156 533.5,-150 539.5,-144 545.5,-144 545.5,-144 646.5,-144 646.5,-144 652.5,-144 658.5,-150 658.5,-156 658.5,-156 658.5,-168 658.5,-168 658.5,-174 652.5,-180 646.5,-180"/>
<text text-anchor="middle" x="596" y="-159.5" font-family="sans" font-size="10.00">stat_sample_background</text>
</g>
<!-- 55&#45;&gt;49 -->
<g id="edge72" class="edge">
<title>55&#45;&gt;49</title>
<path fill="none" stroke="grey" stroke-width="2" d="M596,-143.34C596,-136.75 596,-129.08 596,-121.67"/>
<polygon fill="grey" stroke="grey" stroke-width="2" points="599.5,-121.93 596,-111.93 592.5,-121.93 599.5,-121.93"/>
</g>
<!-- 56&#45;&gt;55 -->
<g id="edge81" class="edge">
<title>56&#45;&gt;55</title>
<path fill="none" stroke="grey" stroke-width="2" d="M596,-215.34C596,-208.75 596,-201.08 596,-193.67"/>
<polygon fill="grey" stroke="grey" stroke-width="2" points="599.5,-193.93 596,-183.93 592.5,-193.93 599.5,-193.93"/>
</g>
</g>
</svg>
