<?xml version="1.0" encoding="UTF-8" standalone="no"?><!DOCTYPE svg PUBLIC "-//W3C//DTD SVG 1.1//EN" "http://www.w3.org/Graphics/SVG/1.1/DTD/svg11.dtd"><!-- Generated by graphviz version 2.40.1 (20161225.0304)
 --><!-- Title: snakemake_dag Pages: 1 --><svg xmlns="http://www.w3.org/2000/svg" xmlns:xlink="http://www.w3.org/1999/xlink" width="1353pt" height="980pt" viewBox="0.00 0.00 1352.94 980.00">
<g id="graph0" class="graph" transform="scale(1 1) rotate(0) translate(4 976)">
<title>snakemake_dag</title>
<polygon fill="#ffffff" stroke="transparent" points="-4,4 -4,-976 1348.9412,-976 1348.9412,4 -4,4"/>
<!-- 0 -->
<g id="node1" class="node">
<title>0</title>
<path fill="none" stroke="#567bd8" stroke-width="2.3" d="M592.4706,-36C592.4706,-36 562.4706,-36 562.4706,-36 556.4706,-36 550.4706,-30 550.4706,-24 550.4706,-24 550.4706,-12 550.4706,-12 550.4706,-6 556.4706,0 562.4706,0 562.4706,0 592.4706,0 592.4706,0 598.4706,0 604.4706,-6 604.4706,-12 604.4706,-12 604.4706,-24 604.4706,-24 604.4706,-30 598.4706,-36 592.4706,-36"/>
<text text-anchor="middle" x="577.4706" y="-12.6" font-family="serif" font-size="18.00" fill="#000000">all</text>
</g>
<!-- 1 -->
<g id="node2" class="node">
<title>1</title>
<path fill="none" stroke="#d87556" stroke-width="2.3" d="M485.9446,-324C485.9446,-324 332.9966,-324 332.9966,-324 326.9966,-324 320.9966,-318 320.9966,-312 320.9966,-312 320.9966,-300 320.9966,-300 320.9966,-294 326.9966,-288 332.9966,-288 332.9966,-288 485.9446,-288 485.9446,-288 491.9446,-288 497.9446,-294 497.9446,-300 497.9446,-300 497.9446,-312 497.9446,-312 497.9446,-318 491.9446,-324 485.9446,-324"/>
<text text-anchor="middle" x="409.4706" y="-300.6" font-family="serif" font-size="18.00" fill="#000000">stat_mapping_number</text>
</g>
<!-- 1&#45;&gt;0 -->
<g id="edge1" class="edge">
<title>1-&gt;0</title>
<path fill="none" stroke="#c0c0c0" stroke-width="2" d="M413.7516,-287.9862C424.278,-246.5022 454.5662,-142.3956 508.4706,-72 517.624,-60.0462 530.0137,-49.2638 541.7689,-40.5338"/>
<polygon fill="#c0c0c0" stroke="#c0c0c0" stroke-width="2" points="544.0492,-43.2066 550.161,-34.5524 539.9863,-37.5063 544.0492,-43.2066"/>
</g>
<!-- 2 -->
<g id="node3" class="node">
<title>2</title>
<path fill="none" stroke="#56d8c1" stroke-width="2.3" d="M729.4478,-612C729.4478,-612 635.4934,-612 635.4934,-612 629.4934,-612 623.4934,-606 623.4934,-600 623.4934,-600 623.4934,-588 623.4934,-588 623.4934,-582 629.4934,-576 635.4934,-576 635.4934,-576 729.4478,-576 729.4478,-576 735.4478,-576 741.4478,-582 741.4478,-588 741.4478,-588 741.4478,-600 741.4478,-600 741.4478,-606 735.4478,-612 729.4478,-612"/>
<text text-anchor="middle" x="682.4706" y="-588.6" font-family="serif" font-size="18.00" fill="#000000">combine_runs</text>
</g>
<!-- 2&#45;&gt;1 -->
<g id="edge5" class="edge">
<title>2-&gt;1</title>
<path fill="none" stroke="#c0c0c0" stroke-width="2" d="M623.152,-583.7717C533.2188,-564.7205 365.1634,-514.4302 292.4706,-396 284.1007,-382.3638 283.8473,-373.4774 292.4706,-360 301.1575,-346.4232 314.2217,-336.2113 328.5115,-328.5456"/>
<polygon fill="#c0c0c0" stroke="#c0c0c0" stroke-width="2" points="330.1179,-331.6559 337.539,-324.0944 327.0222,-325.3776 330.1179,-331.6559"/>
</g>
<!-- 19 -->
<g id="node20" class="node">
<title>19</title>
<path fill="none" stroke="#d86656" stroke-width="2.3" d="M743.4554,-540C743.4554,-540 635.4858,-540 635.4858,-540 629.4858,-540 623.4858,-534 623.4858,-528 623.4858,-528 623.4858,-516 623.4858,-516 623.4858,-510 629.4858,-504 635.4858,-504 635.4858,-504 743.4554,-504 743.4554,-504 749.4554,-504 755.4554,-510 755.4554,-516 755.4554,-516 755.4554,-528 755.4554,-528 755.4554,-534 749.4554,-540 743.4554,-540"/>
<text text-anchor="middle" x="689.4706" y="-516.6" font-family="serif" font-size="18.00" fill="#000000">dedup_mapping</text>
</g>
<!-- 2&#45;&gt;19 -->
<g id="edge34" class="edge">
<title>2-&gt;19</title>
<path fill="none" stroke="#c0c0c0" stroke-width="2" d="M684.237,-575.8314C684.9856,-568.131 685.8759,-558.9743 686.7079,-550.4166"/>
<polygon fill="#c0c0c0" stroke="#c0c0c0" stroke-width="2" points="690.1962,-550.7051 687.6804,-540.4133 683.2291,-550.0276 690.1962,-550.7051"/>
</g>
<!-- 3 -->
<g id="node4" class="node">
<title>3</title>
<path fill="none" stroke="#d85656" stroke-width="2.3" d="M731.46,-684C731.46,-684 633.4812,-684 633.4812,-684 627.4812,-684 621.4812,-678 621.4812,-672 621.4812,-672 621.4812,-660 621.4812,-660 621.4812,-654 627.4812,-648 633.4812,-648 633.4812,-648 731.46,-648 731.46,-648 737.46,-648 743.46,-654 743.46,-660 743.46,-660 743.46,-672 743.46,-672 743.46,-678 737.46,-684 731.46,-684"/>
<text text-anchor="middle" x="682.4706" y="-660.6" font-family="serif" font-size="18.00" fill="#000000">hisat2_3n_sort</text>
</g>
<!-- 3&#45;&gt;2 -->
<g id="edge6" class="edge">
<title>3-&gt;2</title>
<path fill="none" stroke="#c0c0c0" stroke-width="2" d="M682.4706,-647.8314C682.4706,-640.131 682.4706,-630.9743 682.4706,-622.4166"/>
<polygon fill="#c0c0c0" stroke="#c0c0c0" stroke-width="2" points="685.9707,-622.4132 682.4706,-612.4133 678.9707,-622.4133 685.9707,-622.4132"/>
</g>
<!-- 4 -->
<g id="node5" class="node">
<title>4</title>
<path fill="none" stroke="#d8bc56" stroke-width="2.3" d="M599.444,-900C599.444,-900 323.4972,-900 323.4972,-900 317.4972,-900 311.4972,-894 311.4972,-888 311.4972,-888 311.4972,-876 311.4972,-876 311.4972,-870 317.4972,-864 323.4972,-864 323.4972,-864 599.444,-864 599.444,-864 605.444,-864 611.444,-870 611.444,-876 611.444,-876 611.444,-888 611.444,-888 611.444,-894 605.444,-900 599.444,-900"/>
<text text-anchor="middle" x="461.4706" y="-876.6" font-family="serif" font-size="18.00" fill="#000000">hisat2_3n_mapping_contamination_PE</text>
</g>
<!-- 4&#45;&gt;3 -->
<g id="edge7" class="edge">
<title>4-&gt;3</title>
<path fill="none" stroke="#c0c0c0" stroke-width="2" d="M512.4153,-863.9291C534.8569,-854.8164 560.9539,-842.5858 582.4706,-828 620.4537,-802.2519 632.8716,-795.3544 656.4706,-756 667.9207,-736.9055 674.5598,-712.4967 678.259,-693.9173"/>
<polygon fill="#c0c0c0" stroke="#c0c0c0" stroke-width="2" points="681.7164,-694.4671 680.0676,-684.0014 674.83,-693.2111 681.7164,-694.4671"/>
</g>
<!-- 7 -->
<g id="node8" class="node">
<title>7</title>
<path fill="none" stroke="#88d856" stroke-width="2.3" d="M561.9042,-828C561.9042,-828 329.037,-828 329.037,-828 323.037,-828 317.037,-822 317.037,-816 317.037,-816 317.037,-804 317.037,-804 317.037,-798 323.037,-792 329.037,-792 329.037,-792 561.9042,-792 561.9042,-792 567.9042,-792 573.9042,-798 573.9042,-804 573.9042,-804 573.9042,-816 573.9042,-816 573.9042,-822 567.9042,-828 561.9042,-828"/>
<text text-anchor="middle" x="445.4706" y="-804.6" font-family="serif" font-size="18.00" fill="#000000">extract_unmap_bam_internal_PE</text>
</g>
<!-- 4&#45;&gt;7 -->
<g id="edge17" class="edge">
<title>4-&gt;7</title>
<path fill="none" stroke="#c0c0c0" stroke-width="2" d="M457.4331,-863.8314C455.7219,-856.131 453.6871,-846.9743 451.7854,-838.4166"/>
<polygon fill="#c0c0c0" stroke="#c0c0c0" stroke-width="2" points="455.1485,-837.4159 449.5624,-828.4133 448.3152,-838.9344 455.1485,-837.4159"/>
</g>
<!-- 5 -->
<g id="node6" class="node">
<title>5</title>
<path fill="none" stroke="#56d87b" stroke-width="2.3" d="M502.948,-972C502.948,-972 419.9932,-972 419.9932,-972 413.9932,-972 407.9932,-966 407.9932,-960 407.9932,-960 407.9932,-948 407.9932,-948 407.9932,-942 413.9932,-936 419.9932,-936 419.9932,-936 502.948,-936 502.948,-936 508.948,-936 514.948,-942 514.948,-948 514.948,-948 514.948,-960 514.948,-960 514.948,-966 508.948,-972 502.948,-972"/>
<text text-anchor="middle" x="461.4706" y="-948.6" font-family="serif" font-size="18.00" fill="#000000">cutadapt_PE</text>
</g>
<!-- 5&#45;&gt;4 -->
<g id="edge13" class="edge">
<title>5-&gt;4</title>
<path fill="none" stroke="#c0c0c0" stroke-width="2" d="M461.4706,-935.8314C461.4706,-928.131 461.4706,-918.9743 461.4706,-910.4166"/>
<polygon fill="#c0c0c0" stroke="#c0c0c0" stroke-width="2" points="464.9707,-910.4132 461.4706,-900.4133 457.9707,-910.4133 464.9707,-910.4132"/>
</g>
<!-- 6 -->
<g id="node7" class="node">
<title>6</title>
<path fill="none" stroke="#56d8d0" stroke-width="2.3" d="M635.443,-756C635.443,-756 421.4982,-756 421.4982,-756 415.4982,-756 409.4982,-750 409.4982,-744 409.4982,-744 409.4982,-732 409.4982,-732 409.4982,-726 415.4982,-720 421.4982,-720 421.4982,-720 635.443,-720 635.443,-720 641.443,-720 647.443,-726 647.443,-732 647.443,-732 647.443,-744 647.443,-744 647.443,-750 641.443,-756 635.443,-756"/>
<text text-anchor="middle" x="528.4706" y="-732.6" font-family="serif" font-size="18.00" fill="#000000">hisat2_3n_mapping_genes_PE</text>
</g>
<!-- 6&#45;&gt;3 -->
<g id="edge8" class="edge">
<title>6-&gt;3</title>
<path fill="none" stroke="#c0c0c0" stroke-width="2" d="M567.3313,-719.8314C587.7448,-710.2874 612.9429,-698.5065 634.5566,-688.4013"/>
<polygon fill="#c0c0c0" stroke="#c0c0c0" stroke-width="2" points="636.3129,-691.4439 643.8893,-684.038 633.3481,-685.1027 636.3129,-691.4439"/>
</g>
<!-- 6&#45;&gt;7 -->
<g id="edge16" class="edge">
<title>6-&gt;7</title>
<path fill="none" stroke="#c0c0c0" stroke-width="2" d="M513.4847,-756.1628C504.1272,-765.0301 491.8402,-775.8295 480.2422,-785.4219"/>
<polygon fill="#c0c0c0" stroke="#c0c0c0" stroke-width="2" points="477.9138,-782.8042 472.3674,-791.8314 482.3326,-788.2333 477.9138,-782.8042"/>
</g>
<!-- 7&#45;&gt;6 -->
<g id="edge14" class="edge">
<title>7-&gt;6</title>
<path fill="none" stroke="#c0c0c0" stroke-width="2" d="M460.4626,-791.8314C469.8214,-782.9632 482.1089,-772.1637 493.7066,-762.5718"/>
<polygon fill="#c0c0c0" stroke="#c0c0c0" stroke-width="2" points="496.0346,-765.1899 501.5811,-756.1628 491.6158,-759.7608 496.0346,-765.1899"/>
</g>
<!-- 8 -->
<g id="node9" class="node">
<title>8</title>
<path fill="none" stroke="#56d8a9" stroke-width="2.3" d="M379.445,-756C379.445,-756 149.4962,-756 149.4962,-756 143.4962,-756 137.4962,-750 137.4962,-744 137.4962,-744 137.4962,-732 137.4962,-732 137.4962,-726 143.4962,-720 149.4962,-720 149.4962,-720 379.445,-720 379.445,-720 385.445,-720 391.445,-726 391.445,-732 391.445,-732 391.445,-744 391.445,-744 391.445,-750 385.445,-756 379.445,-756"/>
<text text-anchor="middle" x="264.4706" y="-732.6" font-family="serif" font-size="18.00" fill="#000000">hisat2_3n_mapping_genome_PE</text>
</g>
<!-- 7&#45;&gt;8 -->
<g id="edge18" class="edge">
<title>7-&gt;8</title>
<path fill="none" stroke="#c0c0c0" stroke-width="2" d="M393.8443,-791.8314C368.4746,-782.1162 338.1209,-770.0831 313.1581,-759.8592"/>
<polygon fill="#c0c0c0" stroke="#c0c0c0" stroke-width="2" points="314.456,-756.6086 303.8765,-756.038 311.7911,-763.0815 314.456,-756.6086"/>
</g>
<!-- 14 -->
<g id="node15" class="node">
<title>14</title>
<path fill="none" stroke="#bed856" stroke-width="2.3" d="M222.9118,-684C222.9118,-684 12.0294,-684 12.0294,-684 6.0294,-684 .0294,-678 .0294,-672 .0294,-672 .0294,-660 .0294,-660 .0294,-654 6.0294,-648 12.0294,-648 12.0294,-648 222.9118,-648 222.9118,-648 228.9118,-648 234.9118,-654 234.9118,-660 234.9118,-660 234.9118,-672 234.9118,-672 234.9118,-678 228.9118,-684 222.9118,-684"/>
<text text-anchor="middle" x="117.4706" y="-660.6" font-family="serif" font-size="18.00" fill="#000000">extract_unmap_bam_final_PE</text>
</g>
<!-- 7&#45;&gt;14 -->
<g id="edge25" class="edge">
<title>7-&gt;14</title>
<path fill="none" stroke="#c0c0c0" stroke-width="2" d="M316.9694,-803.4497C240.8934,-796.7422 154.4338,-783.216 128.4706,-756 113.0895,-739.8767 111.3553,-714.0655 112.8786,-694.2104"/>
<polygon fill="#c0c0c0" stroke="#c0c0c0" stroke-width="2" points="116.3687,-694.4894 113.9553,-684.1731 109.4086,-693.7427 116.3687,-694.4894"/>
</g>
<!-- 8&#45;&gt;3 -->
<g id="edge12" class="edge">
<title>8-&gt;3</title>
<path fill="none" stroke="#c0c0c0" stroke-width="2" d="M369.1406,-719.9707C444.7013,-706.9555 544.7312,-689.7254 611.2232,-678.2723"/>
<polygon fill="#c0c0c0" stroke="#c0c0c0" stroke-width="2" points="611.9295,-681.7022 621.1903,-676.5555 610.7412,-674.8038 611.9295,-681.7022"/>
</g>
<!-- 8&#45;&gt;7 -->
<g id="edge15" class="edge">
<title>8-&gt;7</title>
<path fill="none" stroke="#c0c0c0" stroke-width="2" d="M315.7557,-756.038C341.0804,-765.7323 371.4357,-777.763 396.4467,-788.003"/>
<polygon fill="#c0c0c0" stroke="#c0c0c0" stroke-width="2" points="395.1695,-791.2622 405.7491,-791.8314 397.8336,-784.7889 395.1695,-791.2622"/>
</g>
<!-- 9 -->
<g id="node10" class="node">
<title>9</title>
<path fill="none" stroke="#568ad8" stroke-width="2.3" d="M925.444,-900C925.444,-900 649.4972,-900 649.4972,-900 643.4972,-900 637.4972,-894 637.4972,-888 637.4972,-888 637.4972,-876 637.4972,-876 637.4972,-870 643.4972,-864 649.4972,-864 649.4972,-864 925.444,-864 925.444,-864 931.444,-864 937.444,-870 937.444,-876 937.444,-876 937.444,-888 937.444,-888 937.444,-894 931.444,-900 925.444,-900"/>
<text text-anchor="middle" x="787.4706" y="-876.6" font-family="serif" font-size="18.00" fill="#000000">hisat2_3n_mapping_contamination_SE</text>
</g>
<!-- 9&#45;&gt;3 -->
<g id="edge11" class="edge">
<title>9-&gt;3</title>
<path fill="none" stroke="#c0c0c0" stroke-width="2" d="M778.699,-863.9555C760.2854,-826.0762 717.5104,-738.0818 695.7288,-693.274"/>
<polygon fill="#c0c0c0" stroke="#c0c0c0" stroke-width="2" points="698.8109,-691.6086 691.2911,-684.1451 692.5153,-694.6689 698.8109,-691.6086"/>
</g>
<!-- 12 -->
<g id="node13" class="node">
<title>12</title>
<path fill="none" stroke="#d8ac56" stroke-width="2.3" d="M1112.9042,-828C1112.9042,-828 880.037,-828 880.037,-828 874.037,-828 868.037,-822 868.037,-816 868.037,-816 868.037,-804 868.037,-804 868.037,-798 874.037,-792 880.037,-792 880.037,-792 1112.9042,-792 1112.9042,-792 1118.9042,-792 1124.9042,-798 1124.9042,-804 1124.9042,-804 1124.9042,-816 1124.9042,-816 1124.9042,-822 1118.9042,-828 1112.9042,-828"/>
<text text-anchor="middle" x="996.4706" y="-804.6" font-family="serif" font-size="18.00" fill="#000000">extract_unmap_bam_internal_SE</text>
</g>
<!-- 9&#45;&gt;12 -->
<g id="edge22" class="edge">
<title>9-&gt;12</title>
<path fill="none" stroke="#c0c0c0" stroke-width="2" d="M839.9404,-863.9243C868.6361,-854.0387 904.3594,-841.7321 934.4306,-831.3726"/>
<polygon fill="#c0c0c0" stroke="#c0c0c0" stroke-width="2" points="935.6646,-834.6495 943.9793,-828.0831 933.3845,-828.0312 935.6646,-834.6495"/>
</g>
<!-- 10 -->
<g id="node11" class="node">
<title>10</title>
<path fill="none" stroke="#68d856" stroke-width="2.3" d="M828.948,-972C828.948,-972 745.9932,-972 745.9932,-972 739.9932,-972 733.9932,-966 733.9932,-960 733.9932,-960 733.9932,-948 733.9932,-948 733.9932,-942 739.9932,-936 745.9932,-936 745.9932,-936 828.948,-936 828.948,-936 834.948,-936 840.948,-942 840.948,-948 840.948,-948 840.948,-960 840.948,-960 840.948,-966 834.948,-972 828.948,-972"/>
<text text-anchor="middle" x="787.4706" y="-948.6" font-family="serif" font-size="18.00" fill="#000000">cutadapt_SE</text>
</g>
<!-- 10&#45;&gt;9 -->
<g id="edge19" class="edge">
<title>10-&gt;9</title>
<path fill="none" stroke="#c0c0c0" stroke-width="2" d="M787.4706,-935.8314C787.4706,-928.131 787.4706,-918.9743 787.4706,-910.4166"/>
<polygon fill="#c0c0c0" stroke="#c0c0c0" stroke-width="2" points="790.9707,-910.4132 787.4706,-900.4133 783.9707,-910.4133 790.9707,-910.4132"/>
</g>
<!-- 11 -->
<g id="node12" class="node">
<title>11</title>
<path fill="none" stroke="#56d0d8" stroke-width="2.3" d="M967.443,-756C967.443,-756 753.4982,-756 753.4982,-756 747.4982,-756 741.4982,-750 741.4982,-744 741.4982,-744 741.4982,-732 741.4982,-732 741.4982,-726 747.4982,-720 753.4982,-720 753.4982,-720 967.443,-720 967.443,-720 973.443,-720 979.443,-726 979.443,-732 979.443,-732 979.443,-744 979.443,-744 979.443,-750 973.443,-756 967.443,-756"/>
<text text-anchor="middle" x="860.4706" y="-732.6" font-family="serif" font-size="18.00" fill="#000000">hisat2_3n_mapping_genes_SE</text>
</g>
<!-- 11&#45;&gt;3 -->
<g id="edge9" class="edge">
<title>11-&gt;3</title>
<path fill="none" stroke="#c0c0c0" stroke-width="2" d="M815.5537,-719.8314C791.5356,-710.1162 761.7872,-698.0831 736.5114,-687.8592"/>
<polygon fill="#c0c0c0" stroke="#c0c0c0" stroke-width="2" points="737.6473,-684.5432 727.0645,-684.038 735.0224,-691.0325 737.6473,-684.5432"/>
</g>
<!-- 11&#45;&gt;12 -->
<g id="edge21" class="edge">
<title>11-&gt;12</title>
<path fill="none" stroke="#c0c0c0" stroke-width="2" d="M900.73,-756.1628C919.1907,-765.4565 940.8887,-776.8724 958.9978,-786.7967"/>
<polygon fill="#c0c0c0" stroke="#c0c0c0" stroke-width="2" points="957.6594,-790.056 968.1045,-791.8314 961.0463,-783.9299 957.6594,-790.056"/>
</g>
<!-- 12&#45;&gt;11 -->
<g id="edge20" class="edge">
<title>12-&gt;11</title>
<path fill="none" stroke="#c0c0c0" stroke-width="2" d="M956.1997,-791.8314C937.7376,-782.5368 916.0396,-771.1208 897.932,-761.1971"/>
<polygon fill="#c0c0c0" stroke="#c0c0c0" stroke-width="2" points="899.2714,-757.9383 888.8263,-756.1628 895.8844,-764.0644 899.2714,-757.9383"/>
</g>
<!-- 13 -->
<g id="node14" class="node">
<title>13</title>
<path fill="none" stroke="#56c1d8" stroke-width="2.3" d="M1239.445,-756C1239.445,-756 1009.4962,-756 1009.4962,-756 1003.4962,-756 997.4962,-750 997.4962,-744 997.4962,-744 997.4962,-732 997.4962,-732 997.4962,-726 1003.4962,-720 1009.4962,-720 1009.4962,-720 1239.445,-720 1239.445,-720 1245.445,-720 1251.445,-726 1251.445,-732 1251.445,-732 1251.445,-744 1251.445,-744 1251.445,-750 1245.445,-756 1239.445,-756"/>
<text text-anchor="middle" x="1124.4706" y="-732.6" font-family="serif" font-size="18.00" fill="#000000">hisat2_3n_mapping_genome_SE</text>
</g>
<!-- 12&#45;&gt;13 -->
<g id="edge24" class="edge">
<title>12-&gt;13</title>
<path fill="none" stroke="#c0c0c0" stroke-width="2" d="M1022.818,-791.8314C1038.5791,-782.4516 1058.967,-770.9112 1077.3786,-760.9244"/>
<polygon fill="#c0c0c0" stroke="#c0c0c0" stroke-width="2" points="1079.081,-763.9829 1086.2293,-756.1628 1075.7646,-757.8183 1079.081,-763.9829"/>
</g>
<!-- 15 -->
<g id="node16" class="node">
<title>15</title>
<path fill="none" stroke="#78d856" stroke-width="2.3" d="M1332.9118,-612C1332.9118,-612 1122.0294,-612 1122.0294,-612 1116.0294,-612 1110.0294,-606 1110.0294,-600 1110.0294,-600 1110.0294,-588 1110.0294,-588 1110.0294,-582 1116.0294,-576 1122.0294,-576 1122.0294,-576 1332.9118,-576 1332.9118,-576 1338.9118,-576 1344.9118,-582 1344.9118,-588 1344.9118,-588 1344.9118,-600 1344.9118,-600 1344.9118,-606 1338.9118,-612 1332.9118,-612"/>
<text text-anchor="middle" x="1227.4706" y="-588.6" font-family="serif" font-size="18.00" fill="#000000">extract_unmap_bam_final_SE</text>
</g>
<!-- 12&#45;&gt;15 -->
<g id="edge26" class="edge">
<title>12-&gt;15</title>
<path fill="none" stroke="#c0c0c0" stroke-width="2" d="M1125.0799,-798.9826C1183.1119,-791.0805 1242.6484,-777.8367 1260.4706,-756 1292.2076,-717.1142 1265.1871,-655.7611 1244.8742,-620.7805"/>
<polygon fill="#c0c0c0" stroke="#c0c0c0" stroke-width="2" points="1247.7888,-618.8356 1239.636,-612.0693 1241.7898,-622.4429 1247.7888,-618.8356"/>
</g>
<!-- 13&#45;&gt;3 -->
<g id="edge10" class="edge">
<title>13-&gt;3</title>
<path fill="none" stroke="#c0c0c0" stroke-width="2" d="M1013.7908,-719.9707C932.2654,-706.6905 823.8016,-689.0222 753.5597,-677.5801"/>
<polygon fill="#c0c0c0" stroke="#c0c0c0" stroke-width="2" points="753.9139,-674.0918 743.4813,-675.9384 752.7884,-681.0007 753.9139,-674.0918"/>
</g>
<!-- 13&#45;&gt;12 -->
<g id="edge23" class="edge">
<title>13-&gt;12</title>
<path fill="none" stroke="#c0c0c0" stroke-width="2" d="M1098.133,-756.1628C1082.3738,-765.5417 1061.9864,-777.082 1043.574,-787.0694"/>
<polygon fill="#c0c0c0" stroke="#c0c0c0" stroke-width="2" points="1041.871,-784.0112 1034.7228,-791.8314 1045.1875,-790.1758 1041.871,-784.0112"/>
</g>
<!-- 14&#45;&gt;0 -->
<g id="edge2" class="edge">
<title>14-&gt;0</title>
<path fill="none" stroke="#c0c0c0" stroke-width="2" d="M142.1417,-647.8169C172.6133,-623.0584 220.4706,-575.6361 220.4706,-522 220.4706,-522 220.4706,-522 220.4706,-162 220.4706,-93.5464 449.0733,-42.4385 540.4162,-24.7495"/>
<polygon fill="#c0c0c0" stroke="#c0c0c0" stroke-width="2" points="541.1783,-28.1673 550.3446,-22.8542 539.8656,-21.2915 541.1783,-28.1673"/>
</g>
<!-- 15&#45;&gt;0 -->
<g id="edge4" class="edge">
<title>15-&gt;0</title>
<path fill="none" stroke="#c0c0c0" stroke-width="2" d="M1223.1194,-575.9379C1216.9684,-548.7787 1206.4706,-495.7286 1206.4706,-450 1206.4706,-450 1206.4706,-450 1206.4706,-162 1206.4706,-39.8386 749.9534,-21.3101 614.7592,-18.5015"/>
<polygon fill="#c0c0c0" stroke="#c0c0c0" stroke-width="2" points="614.5628,-14.9972 604.4979,-18.3061 614.4295,-21.9959 614.5628,-14.9972"/>
</g>
<!-- 16 -->
<g id="node17" class="node">
<title>16</title>
<path fill="none" stroke="#566bd8" stroke-width="2.3" d="M699.923,-108C699.923,-108 529.0182,-108 529.0182,-108 523.0182,-108 517.0182,-102 517.0182,-96 517.0182,-96 517.0182,-84 517.0182,-84 517.0182,-78 523.0182,-72 529.0182,-72 529.0182,-72 699.923,-72 699.923,-72 705.923,-72 711.923,-78 711.923,-84 711.923,-84 711.923,-96 711.923,-96 711.923,-102 705.923,-108 699.923,-108"/>
<text text-anchor="middle" x="614.4706" y="-84.6" font-family="serif" font-size="18.00" fill="#000000">stat_sample_background</text>
</g>
<!-- 16&#45;&gt;0 -->
<g id="edge3" class="edge">
<title>16-&gt;0</title>
<path fill="none" stroke="#c0c0c0" stroke-width="2" d="M605.1339,-71.8314C601.0463,-63.8771 596.1602,-54.369 591.6397,-45.5723"/>
<polygon fill="#c0c0c0" stroke="#c0c0c0" stroke-width="2" points="594.6167,-43.7078 586.933,-36.4133 588.3907,-46.9074 594.6167,-43.7078"/>
</g>
<!-- 17 -->
<g id="node18" class="node">
<title>17</title>
<path fill="none" stroke="#569ad8" stroke-width="2.3" d="M768.4696,-324C768.4696,-324 694.4716,-324 694.4716,-324 688.4716,-324 682.4716,-318 682.4716,-312 682.4716,-312 682.4716,-300 682.4716,-300 682.4716,-294 688.4716,-288 694.4716,-288 694.4716,-288 768.4696,-288 768.4696,-288 774.4696,-288 780.4696,-294 780.4696,-300 780.4696,-300 780.4696,-312 780.4696,-312 780.4696,-318 774.4696,-324 768.4696,-324"/>
<text text-anchor="middle" x="731.4706" y="-300.6" font-family="serif" font-size="18.00" fill="#000000">join_pileup</text>
</g>
<!-- 17&#45;&gt;16 -->
<g id="edge27" class="edge">
<title>17-&gt;16</title>
<path fill="none" stroke="#c0c0c0" stroke-width="2" d="M704.3471,-287.8231C691.6304,-278.2897 676.9979,-265.743 666.4706,-252 635.756,-211.9031 622.8729,-153.0947 617.7037,-118.4607"/>
<polygon fill="#c0c0c0" stroke="#c0c0c0" stroke-width="2" points="621.1117,-117.5505 616.2836,-108.1197 614.1767,-118.5029 621.1117,-117.5505"/>
</g>
<!-- 25 -->
<g id="node26" class="node">
<title>25</title>
<path fill="none" stroke="#9fd856" stroke-width="2.3" d="M775.4574,-252C775.4574,-252 687.4838,-252 687.4838,-252 681.4838,-252 675.4838,-246 675.4838,-240 675.4838,-240 675.4838,-228 675.4838,-228 675.4838,-222 681.4838,-216 687.4838,-216 687.4838,-216 775.4574,-216 775.4574,-216 781.4574,-216 787.4574,-222 787.4574,-228 787.4574,-228 787.4574,-240 787.4574,-240 787.4574,-246 781.4574,-252 775.4574,-252"/>
<text text-anchor="middle" x="731.4706" y="-228.6" font-family="serif" font-size="18.00" fill="#000000">group_pileup</text>
</g>
<!-- 17&#45;&gt;25 -->
<g id="edge40" class="edge">
<title>17-&gt;25</title>
<path fill="none" stroke="#c0c0c0" stroke-width="2" d="M731.4706,-287.8314C731.4706,-280.131 731.4706,-270.9743 731.4706,-262.4166"/>
<polygon fill="#c0c0c0" stroke="#c0c0c0" stroke-width="2" points="734.9707,-262.4132 731.4706,-252.4133 727.9707,-262.4133 734.9707,-262.4132"/>
</g>
<!-- 18 -->
<g id="node19" class="node">
<title>18</title>
<path fill="none" stroke="#d89c56" stroke-width="2.3" d="M569.9162,-396C569.9162,-396 313.025,-396 313.025,-396 307.025,-396 301.025,-390 301.025,-384 301.025,-384 301.025,-372 301.025,-372 301.025,-366 307.025,-360 313.025,-360 313.025,-360 569.9162,-360 569.9162,-360 575.9162,-360 581.9162,-366 581.9162,-372 581.9162,-372 581.9162,-384 581.9162,-384 581.9162,-390 575.9162,-396 569.9162,-396"/>
<text text-anchor="middle" x="441.4706" y="-372.6" font-family="serif" font-size="18.00" fill="#000000">hisat2_3n_calling_unfiltered_unique</text>
</g>
<!-- 18&#45;&gt;17 -->
<g id="edge31" class="edge">
<title>18-&gt;17</title>
<path fill="none" stroke="#c0c0c0" stroke-width="2" d="M514.2755,-359.9243C563.2009,-347.7773 626.8489,-331.975 672.5792,-320.6213"/>
<polygon fill="#c0c0c0" stroke="#c0c0c0" stroke-width="2" points="673.4814,-324.0037 682.3434,-318.1971 671.7946,-317.2099 673.4814,-324.0037"/>
</g>
<!-- 19&#45;&gt;18 -->
<g id="edge33" class="edge">
<title>19-&gt;18</title>
<path fill="none" stroke="#c0c0c0" stroke-width="2" d="M658.3123,-503.9081C613.4881,-477.8812 530.7918,-429.8639 481.4958,-401.2404"/>
<polygon fill="#c0c0c0" stroke="#c0c0c0" stroke-width="2" points="483.1019,-398.1258 472.6965,-396.1311 479.5869,-404.1793 483.1019,-398.1258"/>
</g>
<!-- 20 -->
<g id="node21" class="node">
<title>20</title>
<path fill="none" stroke="#56d86b" stroke-width="2.3" d="M1129.4326,-468C1129.4326,-468 883.5086,-468 883.5086,-468 877.5086,-468 871.5086,-462 871.5086,-456 871.5086,-456 871.5086,-444 871.5086,-444 871.5086,-438 877.5086,-432 883.5086,-432 883.5086,-432 1129.4326,-432 1129.4326,-432 1135.4326,-432 1141.4326,-438 1141.4326,-444 1141.4326,-444 1141.4326,-456 1141.4326,-456 1141.4326,-462 1135.4326,-468 1129.4326,-468"/>
<text text-anchor="middle" x="1006.4706" y="-444.6" font-family="serif" font-size="18.00" fill="#000000">hisat2_3n_calling_unfiltered_multi</text>
</g>
<!-- 19&#45;&gt;20 -->
<g id="edge35" class="edge">
<title>19-&gt;20</title>
<path fill="none" stroke="#c0c0c0" stroke-width="2" d="M755.5383,-506.9941C802.4165,-496.3467 865.8761,-481.9331 917.2479,-470.2651"/>
<polygon fill="#c0c0c0" stroke="#c0c0c0" stroke-width="2" points="918.0458,-473.6731 927.0222,-468.0451 916.4953,-466.8469 918.0458,-473.6731"/>
</g>
<!-- 22 -->
<g id="node23" class="node">
<title>22</title>
<path fill="none" stroke="#ced856" stroke-width="2.3" d="M795.9488,-468C795.9488,-468 666.9924,-468 666.9924,-468 660.9924,-468 654.9924,-462 654.9924,-456 654.9924,-456 654.9924,-444 654.9924,-444 654.9924,-438 660.9924,-432 666.9924,-432 666.9924,-432 795.9488,-432 795.9488,-432 801.9488,-432 807.9488,-438 807.9488,-444 807.9488,-444 807.9488,-456 807.9488,-456 807.9488,-462 801.9488,-468 795.9488,-468"/>
<text text-anchor="middle" x="731.4706" y="-444.6" font-family="serif" font-size="18.00" fill="#000000">hisat2_3n_filtering</text>
</g>
<!-- 19&#45;&gt;22 -->
<g id="edge37" class="edge">
<title>19-&gt;22</title>
<path fill="none" stroke="#c0c0c0" stroke-width="2" d="M700.069,-503.8314C704.7583,-495.7925 710.3734,-486.1666 715.5504,-477.2918"/>
<polygon fill="#c0c0c0" stroke="#c0c0c0" stroke-width="2" points="718.714,-478.8146 720.7295,-468.4133 712.6675,-475.2875 718.714,-478.8146"/>
</g>
<!-- 20&#45;&gt;17 -->
<g id="edge30" class="edge">
<title>20-&gt;17</title>
<path fill="none" stroke="#c0c0c0" stroke-width="2" d="M1094.8034,-431.9356C1113.1547,-423.9772 1130.2906,-412.5133 1141.4706,-396 1150.4407,-382.7509 1152.0198,-372.0297 1141.4706,-360 1118.714,-334.0496 898.8063,-316.616 790.7717,-309.5465"/>
<polygon fill="#c0c0c0" stroke="#c0c0c0" stroke-width="2" points="790.881,-306.0464 780.6763,-308.8948 790.43,-313.0318 790.881,-306.0464"/>
</g>
<!-- 21 -->
<g id="node22" class="node">
<title>21</title>
<path fill="none" stroke="#56d88a" stroke-width="2.3" d="M850.9162,-396C850.9162,-396 612.025,-396 612.025,-396 606.025,-396 600.025,-390 600.025,-384 600.025,-384 600.025,-372 600.025,-372 600.025,-366 606.025,-360 612.025,-360 612.025,-360 850.9162,-360 850.9162,-360 856.9162,-360 862.9162,-366 862.9162,-372 862.9162,-372 862.9162,-384 862.9162,-384 862.9162,-390 856.9162,-396 850.9162,-396"/>
<text text-anchor="middle" x="731.4706" y="-372.6" font-family="serif" font-size="18.00" fill="#000000">hisat2_3n_calling_filtered_unqiue</text>
</g>
<!-- 21&#45;&gt;17 -->
<g id="edge32" class="edge">
<title>21-&gt;17</title>
<path fill="none" stroke="#c0c0c0" stroke-width="2" d="M731.4706,-359.8314C731.4706,-352.131 731.4706,-342.9743 731.4706,-334.4166"/>
<polygon fill="#c0c0c0" stroke="#c0c0c0" stroke-width="2" points="734.9707,-334.4132 731.4706,-324.4133 727.9707,-334.4133 734.9707,-334.4132"/>
</g>
<!-- 22&#45;&gt;21 -->
<g id="edge36" class="edge">
<title>22-&gt;21</title>
<path fill="none" stroke="#c0c0c0" stroke-width="2" d="M731.4706,-431.8314C731.4706,-424.131 731.4706,-414.9743 731.4706,-406.4166"/>
<polygon fill="#c0c0c0" stroke="#c0c0c0" stroke-width="2" points="734.9707,-406.4132 731.4706,-396.4133 727.9707,-406.4133 734.9707,-406.4132"/>
</g>
<!-- 23 -->
<g id="node24" class="node">
<title>23</title>
<path fill="none" stroke="#56d89a" stroke-width="2.3" d="M1120.4326,-396C1120.4326,-396 892.5086,-396 892.5086,-396 886.5086,-396 880.5086,-390 880.5086,-384 880.5086,-384 880.5086,-372 880.5086,-372 880.5086,-366 886.5086,-360 892.5086,-360 892.5086,-360 1120.4326,-360 1120.4326,-360 1126.4326,-360 1132.4326,-366 1132.4326,-372 1132.4326,-372 1132.4326,-384 1132.4326,-384 1132.4326,-390 1126.4326,-396 1120.4326,-396"/>
<text text-anchor="middle" x="1006.4706" y="-372.6" font-family="serif" font-size="18.00" fill="#000000">hisat2_3n_calling_filtered_multi</text>
</g>
<!-- 22&#45;&gt;23 -->
<g id="edge38" class="edge">
<title>22-&gt;23</title>
<path fill="none" stroke="#c0c0c0" stroke-width="2" d="M800.5098,-431.9243C839.1663,-421.8033 887.5152,-409.1447 927.6523,-398.6361"/>
<polygon fill="#c0c0c0" stroke="#c0c0c0" stroke-width="2" points="928.6156,-402.0019 937.403,-396.0831 926.8426,-395.2302 928.6156,-402.0019"/>
</g>
<!-- 23&#45;&gt;17 -->
<g id="edge29" class="edge">
<title>23-&gt;17</title>
<path fill="none" stroke="#c0c0c0" stroke-width="2" d="M937.4314,-359.9243C892.1169,-348.0601 833.4837,-332.7089 790.3719,-321.4214"/>
<polygon fill="#c0c0c0" stroke="#c0c0c0" stroke-width="2" points="791.154,-318.0083 780.5936,-318.8613 789.381,-324.78 791.154,-318.0083"/>
</g>
<!-- 24 -->
<g id="node25" class="node">
<title>24</title>
<path fill="none" stroke="#afd856" stroke-width="2.3" d="M808.4256,-180C808.4256,-180 654.5156,-180 654.5156,-180 648.5156,-180 642.5156,-174 642.5156,-168 642.5156,-168 642.5156,-156 642.5156,-156 642.5156,-150 648.5156,-144 654.5156,-144 654.5156,-144 808.4256,-144 808.4256,-144 814.4256,-144 820.4256,-150 820.4256,-156 820.4256,-156 820.4256,-168 820.4256,-168 820.4256,-174 814.4256,-180 808.4256,-180"/>
<text text-anchor="middle" x="731.4706" y="-156.6" font-family="serif" font-size="18.00" fill="#000000">combined_select_sites</text>
</g>
<!-- 24&#45;&gt;16 -->
<g id="edge28" class="edge">
<title>24-&gt;16</title>
<path fill="none" stroke="#c0c0c0" stroke-width="2" d="M701.9466,-143.8314C686.9815,-134.6221 668.632,-123.3301 652.6103,-113.4706"/>
<polygon fill="#c0c0c0" stroke="#c0c0c0" stroke-width="2" points="654.3361,-110.423 643.9852,-108.1628 650.6674,-116.3847 654.3361,-110.423"/>
</g>
<!-- 25&#45;&gt;24 -->
<g id="edge39" class="edge">
<title>25-&gt;24</title>
<path fill="none" stroke="#c0c0c0" stroke-width="2" d="M731.4706,-215.8314C731.4706,-208.131 731.4706,-198.9743 731.4706,-190.4166"/>
<polygon fill="#c0c0c0" stroke="#c0c0c0" stroke-width="2" points="734.9707,-190.4132 731.4706,-180.4133 727.9707,-190.4133 734.9707,-190.4132"/>
</g>
</g>
</svg>