<?xml version="1.0" encoding="utf-8"?>
<!-- Generator: Adobe Illustrator 27.2.0, SVG Export Plug-In . SVG Version: 6.00 Build 0)  -->
<svg version="1.1" id="Layer_1" xmlns="http://www.w3.org/2000/svg" xmlns:xlink="http://www.w3.org/1999/xlink" x="0px" y="0px"
	 viewBox="0 0 1353 980" style="enable-background:new 0 0 1353 980;" xml:space="preserve">
<style type="text/css">
	.st0{fill:none;stroke:#567BD8;stroke-width:3;}
	.st1{fill:#777777;}
	.st2{font-family:'TimesNewRomanPSMT';}
	.st3{font-size:18px;}
	.st4{opacity:0.21;fill:#CC9900;stroke:#FFFFFF;stroke-width:3;}
	.st5{fill:none;stroke:#C0C0C0;stroke-width:3;}
	.st6{fill:#C0C0C0;stroke:#C0C0C0;stroke-width:3;}
	.st7{fill:none;stroke:#99FF33;stroke-width:3;}
	.st8{fill:none;stroke:#33CCFF;stroke-width:3;}
</style>
<path class="st0" d="M596.5,940h-30c-6,0-12,6-12,12v12c0,6,6,12,12,12h30c6,0,12-6,12-12v-12C608.5,946,602.5,940,596.5,940"/>
<text transform="matrix(1 0 0 1 557.7539 963.633)" class="st1 st2 st3">results</text>
<path class="st4" d="M490,652H337c-6,0-12,6-12,12v12c0,6,6,12,12,12H490c6,0,12-6,12-12v-12C502,658,496,652,490,652"/>
<text transform="matrix(1 0 0 1 333.0148 675.4)" class="st1 st2 st3">stat_mapping_number</text>
<path class="st5" d="M417.8,688c10.5,41.5,40.8,145.6,94.7,216c9.2,12,21.5,22.7,33.3,31.5"/>
<polygon class="st6" points="548.1,932.8 554.2,941.4 544,938.5 "/>
<path class="st4" d="M733.5,364h-94c-6,0-12,6-12,12v12c0,6,6,12,12,12h94c6,0,12-6,12-12v-12C745.5,370,739.5,364,733.5,364"/>
<text transform="matrix(1 0 0 1 635.5109 387.4)" class="st1 st2 st3">combine_runs</text>
<path class="st5" d="M627.2,392.2c-89.9,19.1-258,69.3-330.7,187.8c-8.4,13.6-8.6,22.5,0,36c8.7,13.6,21.8,23.8,36,31.5"/>
<polygon class="st6" points="334.1,644.3 341.6,651.9 331.1,650.6 "/>
<path class="st4" d="M747.5,436h-108c-6,0-12,6-12,12v12c0,6,6,12,12,12h108c6,0,12-6,12-12v-12C759.5,442,753.5,436,747.5,436"/>
<text transform="matrix(1 0 0 1 635.5104 459.4)" class="st1 st2 st3">dedup_mapping</text>
<path class="st5" d="M688.3,400.2c0.7,7.7,1.6,16.9,2.5,25.4"/>
<polygon class="st6" points="694.2,425.3 691.7,435.6 687.3,426 "/>
<path class="st4" d="M735.5,292h-98c-6,0-12,6-12,12v12c0,6,6,12,12,12h98c6,0,12-6,12-12v-12C747.5,298,741.5,292,735.5,292"/>
<text transform="matrix(1 0 0 1 633.5026 315.4)" class="st1 st2 st3">hisat2_3n_sort</text>
<path class="st5" d="M686.5,328.2c0,7.7,0,16.9,0,25.4"/>
<polygon class="st6" points="690,353.6 686.5,363.6 683,353.6 "/>
<path class="st7" d="M603.5,76H327.5c-6,0-12,6-12,12v12c0,6,6,12,12,12h275.9c6,0,12-6,12-12V88C615.5,82,609.5,76,603.5,76"/>
<text transform="matrix(1 0 0 1 323.5177 99.4)" class="st1 st2 st3">hisat2_3n_mapping_contamination_PE</text>
<path class="st5" d="M516.4,112.1c22.4,9.1,48.5,21.3,70.1,35.9c38,25.7,50.4,32.6,74,72c11.5,19.1,18.1,43.5,21.8,62.1"/>
<polygon class="st6" points="685.7,281.5 684.1,292 678.9,282.8 "/>
<path class="st7" d="M565.9,148H333.1c-6,0-12,6-12,12v12c0,6,6,12,12,12h232.9c6,0,12-6,12-12v-12C577.9,154,571.9,148,565.9,148"
	/>
<text transform="matrix(1 0 0 1 329.0378 171.4)" class="st1 st2 st3">extract_unmap_bam_internal_PE</text>
<path class="st5" d="M461.5,112.2c-1.7,7.7-3.7,16.9-5.6,25.4"/>
<polygon class="st6" points="459.2,138.6 453.6,147.6 452.3,137.1 "/>
<path class="st7" d="M507,4h-83c-6,0-12,6-12,12v12c0,6,6,12,12,12h83c6,0,12-6,12-12V16C519,10,513,4,507,4"/>
<text transform="matrix(1 0 0 1 420.0128 27.4)" class="st1 st2 st3">cutadapt_PE</text>
<path class="st5" d="M465.5,40.2c0,7.7,0,16.9,0,25.4"/>
<polygon class="st6" points="469,65.6 465.5,75.6 462,65.6 "/>
<path class="st7" d="M639.5,220H425.5c-6,0-12,6-12,12v12c0,6,6,12,12,12h213.9c6,0,12-6,12-12v-12C651.5,226,645.5,220,639.5,220"
	/>
<text transform="matrix(1 0 0 1 421.5123 243.4)" class="st1 st2 st3">hisat2_3n_mapping_genes_PE</text>
<path class="st5" d="M571.4,256.2c20.4,9.5,45.6,21.3,67.2,31.4"/>
<polygon class="st6" points="640.3,284.6 647.9,292 637.4,290.9 "/>
<path class="st5" d="M517.5,219.8c-9.4-8.9-21.6-19.7-33.2-29.3"/>
<polygon class="st6" points="481.9,193.2 476.4,184.2 486.4,187.8 "/>
<path class="st5" d="M464.5,184.2c9.4,8.9,21.6,19.7,33.2,29.3"/>
<polygon class="st6" points="500.1,210.8 505.6,219.8 495.6,216.2 "/>
<path class="st7" d="M383.5,220H153.5c-6,0-12,6-12,12v12c0,6,6,12,12,12h229.9c6,0,12-6,12-12v-12C395.5,226,389.5,220,383.5,220"
	/>
<text transform="matrix(1 0 0 1 149.5143 243.4)" class="st1 st2 st3">hisat2_3n_mapping_genome_PE</text>
<path class="st5" d="M397.9,184.2c-25.4,9.7-55.7,21.7-80.7,32"/>
<polygon class="st6" points="318.5,219.4 307.9,220 315.8,212.9 "/>
<path class="st7" d="M226.9,292H16.1c-6,0-12,6-12,12v12c0,6,6,12,12,12h210.9c6,0,12-6,12-12v-12C238.9,298,232.9,292,226.9,292"/>
<text transform="matrix(1 0 0 1 12.0328 315.4)" class="st1 st2 st3">extract_unmap_bam_final_PE</text>
<path class="st5" d="M321,172.6c-76.1,6.7-162.5,20.2-188.5,47.4c-15.4,16.1-17.1,41.9-15.6,61.8"/>
<polygon class="st6" points="120.4,281.5 118,291.8 113.4,282.3 "/>
<path class="st5" d="M373.2,256c75.6,13,175.6,30.2,242.1,41.7"/>
<polygon class="st6" points="616,294.3 625.2,299.4 614.8,301.2 "/>
<path class="st5" d="M319.8,220c25.3-9.7,55.7-21.7,80.7-32"/>
<polygon class="st6" points="399.2,184.7 409.8,184.2 401.9,191.2 "/>
<path class="st8" d="M929.5,76H653.5c-6,0-12,6-12,12v12c0,6,6,12,12,12h275.9c6,0,12-6,12-12V88C941.5,82,935.5,76,929.5,76"/>
<text transform="matrix(1 0 0 1 649.5177 99.4)" class="st1 st2 st3">hisat2_3n_mapping_contamination_SE</text>
<path class="st5" d="M782.7,112c-18.4,37.9-61.2,125.9-83,170.7"/>
<polygon class="st6" points="702.8,284.4 695.3,291.9 696.5,281.3 "/>
<path class="st8" d="M1116.9,148H884.1c-6,0-12,6-12,12v12c0,6,6,12,12,12h232.9c6,0,12-6,12-12v-12
	C1128.9,154,1122.9,148,1116.9,148"/>
<text transform="matrix(1 0 0 1 880.0377 171.4)" class="st1 st2 st3">extract_unmap_bam_internal_SE</text>
<path class="st5" d="M844,112.1c28.7,9.9,64.4,22.2,94.5,32.6"/>
<polygon class="st6" points="939.7,141.4 948,147.9 937.4,148 "/>
<path class="st8" d="M833,4h-83c-6,0-12,6-12,12v12c0,6,6,12,12,12h83c6,0,12-6,12-12V16C845,10,839,4,833,4"/>
<text transform="matrix(1 0 0 1 746.0128 27.4)" class="st1 st2 st3">cutadapt_SE</text>
<path class="st5" d="M791.5,40.2c0,7.7,0,16.9,0,25.4"/>
<polygon class="st6" points="795,65.6 791.5,75.6 788,65.6 "/>
<path class="st8" d="M971.5,220H757.5c-6,0-12,6-12,12v12c0,6,6,12,12,12h213.9c6,0,12-6,12-12v-12C983.5,226,977.5,220,971.5,220"
	/>
<text transform="matrix(1 0 0 1 753.5123 243.4)" class="st1 st2 st3">hisat2_3n_mapping_genes_SE</text>
<path class="st5" d="M819.6,256.2c-24,9.7-53.8,21.7-79,32"/>
<polygon class="st6" points="741.7,291.5 731.1,292 739.1,285 "/>
<path class="st5" d="M904.8,219.8c18.5-9.3,40.2-20.7,58.3-30.6"/>
<polygon class="st6" points="961.7,185.9 972.1,184.2 965.1,192.1 "/>
<path class="st5" d="M960.2,184.2c-18.5,9.3-40.2,20.7-58.3,30.6"/>
<polygon class="st6" points="903.3,218.1 892.9,219.8 899.9,211.9 "/>
<path class="st8" d="M1243.5,220h-229.9c-6,0-12,6-12,12v12c0,6,6,12,12,12h229.9c6,0,12-6,12-12v-12
	C1255.5,226,1249.5,220,1243.5,220"/>
<text transform="matrix(1 0 0 1 1009.5143 243.4)" class="st1 st2 st3">hisat2_3n_mapping_genome_SE</text>
<path class="st5" d="M1026.8,184.2c15.8,9.4,36.1,20.9,54.6,30.9"/>
<polygon class="st6" points="1083.1,212 1090.3,219.8 1079.8,218.2 "/>
<path class="st8" d="M1336.9,364h-210.9c-6,0-12,6-12,12v12c0,6,6,12,12,12h210.9c6,0,12-6,12-12v-12
	C1348.9,370,1342.9,364,1336.9,364"/>
<text transform="matrix(1 0 0 1 1122.0328 387.4)" class="st1 st2 st3">extract_unmap_bam_final_SE</text>
<path class="st5" d="M1129.1,177c58,7.9,117.6,21.1,135.4,43c31.7,38.9,4.7,100.2-15.6,135.2"/>
<polygon class="st6" points="1251.8,357.2 1243.7,363.9 1245.8,353.6 "/>
<path class="st5" d="M1017.8,256c-81.5,13.3-190,30.9-260.2,42.4"/>
<polygon class="st6" points="757.9,301.9 747.5,300.1 756.8,295 "/>
<path class="st5" d="M1102.2,219.8c-15.8-9.4-36.1-20.9-54.6-30.9"/>
<polygon class="st6" points="1045.9,192 1038.8,184.2 1049.2,185.8 "/>
<path class="st5" d="M146.2,328.2c30.5,24.8,78.3,72.2,78.3,125.8c0,0,0,0,0,360c0,68.5,228.6,119.6,319.9,137.3"/>
<polygon class="st6" points="545.2,947.8 554.4,953.1 543.9,954.7 "/>
<path class="st5" d="M1227.1,400.1c-6.2,27.2-16.6,80.2-16.6,125.9c0,0,0,0,0,288c0,122.2-456.5,140.7-591.7,143.5"/>
<polygon class="st6" points="618.6,961 608.5,957.7 618.5,954 "/>
<path class="st4" d="M704,868H533c-6,0-12,6-12,12v12c0,6,6,12,12,12H704c6,0,12-6,12-12v-12C716,874,710,868,704,868"/>
<text transform="matrix(1 0 0 1 529.0236 891.4)" class="st1 st2 st3">stat_sample_background</text>
<path class="st5" d="M609.2,904.2c-4.1,8-9,17.5-13.5,26.3"/>
<polygon class="st6" points="598.6,932.3 591,939.6 592.4,929.1 "/>
<path class="st4" d="M772.5,652h-74c-6,0-12,6-12,12v12c0,6,6,12,12,12h74c6,0,12-6,12-12v-12C784.5,658,778.5,652,772.5,652"/>
<text transform="matrix(1 0 0 1 694.504 675.4)" class="st1 st2 st3">join_pileup</text>
<path class="st5" d="M708.4,688.2c-12.7,9.5-27.3,22.1-37.9,35.8c-30.7,40.1-43.6,98.9-48.8,133.5"/>
<polygon class="st6" points="625.1,858.4 620.3,867.9 618.2,857.5 "/>
<path class="st4" d="M779.5,724h-88c-6,0-12,6-12,12v12c0,6,6,12,12,12h88c6,0,12-6,12-12v-12C791.5,730,785.5,724,779.5,724"/>
<text transform="matrix(1 0 0 1 687.5079 747.4)" class="st1 st2 st3">group_pileup</text>
<path class="st5" d="M735.5,688.2c0,7.7,0,16.9,0,25.4"/>
<polygon class="st6" points="739,713.6 735.5,723.6 732,713.6 "/>
<path class="st4" d="M573.9,580H317.1c-6,0-12,6-12,12v12c0,6,6,12,12,12h256.9c6,0,12-6,12-12v-12C585.9,586,579.9,580,573.9,580"
	/>
<text transform="matrix(1 0 0 1 313.0319 603.4)" class="st1 st2 st3">hisat2_3n_calling_unfiltered_unique</text>
<path class="st5" d="M518.3,616.1c48.9,12.1,112.6,27.9,158.3,39.3"/>
<polygon class="st6" points="677.5,652 686.4,657.8 675.8,658.8 "/>
<path class="st5" d="M662.3,472.1c-44.8,26-127.5,74-176.8,102.7"/>
<polygon class="st6" points="487.1,577.9 476.7,579.9 483.6,571.8 "/>
<path class="st4" d="M1133.5,508H887.5c-6,0-12,6-12,12v12c0,6,6,12,12,12h245.9c6,0,12-6,12-12v-12
	C1145.5,514,1139.5,508,1133.5,508"/>
<text transform="matrix(1 0 0 1 883.525 531.4)" class="st1 st2 st3">hisat2_3n_calling_unfiltered_multi</text>
<path class="st5" d="M759.6,469c46.9,10.6,110.3,25.1,161.7,36.7"/>
<polygon class="st6" points="922.1,502.3 931.1,508 920.5,509.2 "/>
<path class="st4" d="M800,508H671c-6,0-12,6-12,12v12c0,6,6,12,12,12h129c6,0,12-6,12-12v-12C812,514,806,508,800,508"/>
<text transform="matrix(1 0 0 1 667.0118 531.4)" class="st1 st2 st3">hisat2_3n_filtering</text>
<path class="st5" d="M704.1,472.2c4.7,8,10.3,17.7,15.5,26.5"/>
<polygon class="st6" points="722.7,497.2 724.8,507.6 716.7,500.7 "/>
<path class="st5" d="M1098.8,544.1c18.4,8,35.5,19.4,46.7,35.9c9,13.2,10.5,24,0,36c-22.8,26-242.7,43.4-350.7,50.5"/>
<polygon class="st6" points="794.9,670 784.7,667.1 794.5,663 "/>
<path class="st4" d="M854.9,580H616.1c-6,0-12,6-12,12v12c0,6,6,12,12,12h238.9c6,0,12-6,12-12v-12C866.9,586,860.9,580,854.9,580"
	/>
<text transform="matrix(1 0 0 1 612.0319 603.4)" class="st1 st2 st3">hisat2_3n_calling_filtered_unqiue</text>
<path class="st5" d="M735.5,616.2c0,7.7,0,16.9,0,25.4"/>
<polygon class="st6" points="739,641.6 735.5,651.6 732,641.6 "/>
<path class="st5" d="M735.5,544.2c0,7.7,0,16.9,0,25.4"/>
<polygon class="st6" points="739,569.6 735.5,579.6 732,569.6 "/>
<path class="st4" d="M1124.5,580H896.5c-6,0-12,6-12,12v12c0,6,6,12,12,12h227.9c6,0,12-6,12-12v-12
	C1136.5,586,1130.5,580,1124.5,580"/>
<text transform="matrix(1 0 0 1 892.525 603.4)" class="st1 st2 st3">hisat2_3n_calling_filtered_multi</text>
<path class="st5" d="M804.5,544.1c38.7,10.1,87,22.8,127.1,33.3"/>
<polygon class="st6" points="932.6,574 941.4,579.9 930.9,580.8 "/>
<path class="st5" d="M941.5,616.1c-45.3,11.9-103.9,27.2-147.1,38.5"/>
<polygon class="st6" points="795.2,658 784.6,657.1 793.4,651.2 "/>
<path class="st4" d="M812.5,796H658.5c-6,0-12,6-12,12v12c0,6,6,12,12,12h153.9c6,0,12-6,12-12v-12C824.5,802,818.5,796,812.5,796"
	/>
<text transform="matrix(1 0 0 1 654.5226 819.4)" class="st1 st2 st3">combined_select_sites</text>
<path class="st5" d="M706,832.2c-15,9.2-33.3,20.5-49.3,30.4"/>
<polygon class="st6" points="658.4,865.6 648,867.8 654.7,859.6 "/>
<path class="st5" d="M735.5,760.2c0,7.7,0,16.9,0,25.4"/>
<polygon class="st6" points="739,785.6 735.5,795.6 732,785.6 "/>
</svg>
